<svg width="222" height="222" viewBox="0 0 222 222" fill="none" xmlns="http://www.w3.org/2000/svg">
<rect width="222" height="222" rx="15" fill="white"/>
<rect width="210.9" height="210.9" transform="translate(6.65991 6.65991)" fill="white"/>
<rect width="210.9" height="210.9" transform="translate(6.65991 6.65991)" fill="white"/>
<path d="M13.69 87.5051C15.6313 87.5051 17.205 85.9314 17.205 83.9901C17.205 82.0488 15.6313 80.4751 13.69 80.4751C11.7488 80.4751 10.175 82.0488 10.175 83.9901C10.175 85.9314 11.7488 87.5051 13.69 87.5051Z" fill="black"/>
<path d="M17.2051 108.595V101.565H13.6901C12.7578 101.565 11.8638 101.935 11.2046 102.594C10.5454 103.254 10.1751 104.148 10.1751 105.08C10.1751 106.012 10.5454 106.906 11.2046 107.565C11.8638 108.225 12.7578 108.595 13.6901 108.595" fill="black"/>
<path d="M13.69 129.685C15.6313 129.685 17.205 128.111 17.205 126.17C17.205 124.229 15.6313 122.655 13.69 122.655C11.7488 122.655 10.175 124.229 10.175 126.17C10.175 128.111 11.7488 129.685 13.69 129.685Z" fill="black"/>
<path d="M13.69 157.805C15.6313 157.805 17.205 156.231 17.205 154.29C17.205 152.349 15.6313 150.775 13.69 150.775C11.7488 150.775 10.175 152.349 10.175 154.29C10.175 156.231 11.7488 157.805 13.69 157.805Z" fill="black"/>
<path d="M17.2051 73.4451H24.2351V69.9301C24.2351 68.9978 23.8648 68.1038 23.2056 67.4446C22.5464 66.7854 21.6523 66.4151 20.7201 66.4151C19.7878 66.4151 18.8938 66.7854 18.2346 67.4446C17.5754 68.1038 17.2051 68.9978 17.2051 69.9301" fill="black"/>
<path d="M24.2351 80.4751V73.4451H17.2051V76.9601C17.2051 77.8923 17.5754 78.7864 18.2346 79.4456C18.8938 80.1048 19.7879 80.4751 20.7201 80.4751" fill="black"/>
<path d="M17.2051 101.565H24.2351V94.5349H20.7201C19.7878 94.5349 18.8938 94.9053 18.2346 95.5645C17.5754 96.2237 17.2051 97.1177 17.2051 98.0499" fill="black"/>
<path d="M24.2351 101.565H17.2051V108.595H20.7201C21.6523 108.595 22.5464 108.225 23.2056 107.565C23.8648 106.906 24.2351 106.012 24.2351 105.08" fill="black"/>
<path d="M24.2351 122.655V115.625H20.7201C19.7879 115.625 18.8938 115.995 18.2346 116.655C17.5754 117.314 17.2051 118.208 17.2051 119.14C17.2051 120.072 17.5754 120.966 18.2346 121.626C18.8938 122.285 19.7879 122.655 20.7201 122.655" fill="black"/>
<path d="M20.7201 136.715C22.6614 136.715 24.2351 135.141 24.2351 133.2C24.2351 131.259 22.6614 129.685 20.7201 129.685C18.7788 129.685 17.2051 131.259 17.2051 133.2C17.2051 135.141 18.7788 136.715 20.7201 136.715Z" fill="black"/>
<path d="M24.2351 150.775V143.745H20.7201C19.7879 143.745 18.8938 144.115 18.2346 144.774C17.5754 145.434 17.2051 146.328 17.2051 147.26C17.2051 148.192 17.5754 149.086 18.2346 149.745C18.8938 150.405 19.7879 150.775 20.7201 150.775" fill="black"/>
<path d="M31.2651 73.4451H24.2351V80.4751H31.2651V73.4451Z" fill="black"/>
<path d="M31.2651 80.4751H24.2351V87.5051H31.2651V80.4751Z" fill="black"/>
<path d="M31.2651 87.5049H24.2351V94.5349H31.2651V87.5049Z" fill="black"/>
<path d="M31.2651 94.5349H24.2351V101.565H31.2651V94.5349Z" fill="black"/>
<path d="M31.2651 115.625H24.2351V122.655H31.2651V115.625Z" fill="black"/>
<path d="M24.2351 143.745H31.2651V140.23C31.2651 139.298 30.8948 138.404 30.2356 137.745C29.5764 137.085 28.6823 136.715 27.7501 136.715C26.8179 136.715 25.9238 137.085 25.2646 137.745C24.6054 138.404 24.2351 139.298 24.2351 140.23" fill="black"/>
<path d="M31.2649 143.745H24.2349V150.775H27.7499C28.6821 150.775 29.5762 150.405 30.2354 149.746C30.8946 149.086 31.2649 148.192 31.2649 147.26" fill="black"/>
<path d="M31.2649 73.4451H38.2949V66.4151H34.7799C33.8477 66.4151 32.9536 66.7854 32.2944 67.4446C31.6352 68.1038 31.2649 68.9978 31.2649 69.9301" fill="black"/>
<path d="M38.2949 73.4451H31.2649V80.4751H38.2949V73.4451Z" fill="black"/>
<path d="M38.2949 94.5349H31.2649V101.565H38.2949V94.5349Z" fill="black"/>
<path d="M31.2649 115.625V122.655H38.2949V119.14C38.2949 118.208 37.9246 117.314 37.2654 116.655C36.6062 115.995 35.7121 115.625 34.7799 115.625" fill="black"/>
<path d="M38.2949 122.655H31.2649V129.685H38.2949V122.655Z" fill="black"/>
<path d="M38.2949 136.715V129.685H31.2649V133.2C31.2649 134.132 31.6353 135.026 32.2944 135.686C32.9536 136.345 33.8477 136.715 34.7799 136.715" fill="black"/>
<path d="M38.2949 157.805V150.775H34.7799C33.8477 150.775 32.9536 151.145 32.2944 151.804C31.6353 152.464 31.2649 153.358 31.2649 154.29C31.2649 155.222 31.6353 156.116 32.2944 156.775C32.9536 157.435 33.8477 157.805 34.7799 157.805" fill="black"/>
<path d="M38.2949 66.415V73.445H45.3249V69.93C45.3249 68.9978 44.9546 68.1037 44.2954 67.4446C43.6362 66.7854 42.7422 66.415 41.8099 66.415" fill="black"/>
<path d="M45.3249 73.4451H38.2949V80.4751H45.3249V73.4451Z" fill="black"/>
<path d="M45.325 80.4751H38.295V83.9901C38.295 84.9223 38.6653 85.8164 39.3245 86.4756C39.9837 87.1348 40.8777 87.5051 41.81 87.5051C42.7422 87.5051 43.6362 87.1348 44.2954 86.4756C44.9546 85.8164 45.325 84.9223 45.325 83.9901" fill="black"/>
<path d="M38.2949 94.5349V101.565H45.3249V98.0499C45.3249 97.1177 44.9546 96.2236 44.2954 95.5644C43.6362 94.9052 42.7422 94.5349 41.8099 94.5349" fill="black"/>
<path d="M45.3249 101.565H38.2949V108.595H45.3249V101.565Z" fill="black"/>
<path d="M45.325 108.595H38.295V112.11C38.295 113.042 38.6653 113.936 39.3245 114.595C39.9837 115.255 40.8777 115.625 41.81 115.625C42.7422 115.625 43.6362 115.255 44.2954 114.595C44.9546 113.936 45.325 113.042 45.325 112.11" fill="black"/>
<path d="M45.3249 122.655H38.2949V129.685H45.3249V122.655Z" fill="black"/>
<path d="M45.3249 129.685H38.2949V136.715H45.3249V129.685Z" fill="black"/>
<path d="M45.3249 136.715H38.2949V143.745H45.3249V136.715Z" fill="black"/>
<path d="M45.3249 143.745H38.2949V150.775H45.3249V143.745Z" fill="black"/>
<path d="M45.325 150.775H38.295V157.805H41.81C42.7422 157.805 43.6362 157.435 44.2954 156.775C44.9546 156.116 45.325 155.222 45.325 154.29" fill="black"/>
<path d="M45.325 73.4451V80.4751H48.84C49.7722 80.4751 50.6662 80.1047 51.3254 79.4456C51.9846 78.7864 52.355 77.8923 52.355 76.9601C52.355 76.0278 51.9846 75.1338 51.3254 74.4746C50.6662 73.8154 49.7722 73.4451 48.84 73.4451" fill="black"/>
<path d="M48.84 94.5349C50.7812 94.5349 52.355 92.9612 52.355 91.0199C52.355 89.0786 50.7812 87.5049 48.84 87.5049C46.8987 87.5049 45.325 89.0786 45.325 91.0199C45.325 92.9612 46.8987 94.5349 48.84 94.5349Z" fill="black"/>
<path d="M45.325 101.565V108.595H48.84C49.7722 108.595 50.6662 108.225 51.3254 107.565C51.9846 106.906 52.355 106.012 52.355 105.08C52.355 104.148 51.9846 103.254 51.3254 102.594C50.6662 101.935 49.7722 101.565 48.84 101.565" fill="black"/>
<path d="M52.355 122.655H45.325V129.685H52.355V122.655Z" fill="black"/>
<path d="M52.355 136.715H45.325V143.745H52.355V136.715Z" fill="black"/>
<path d="M59.385 73.4451V66.4151H55.87C54.9378 66.4151 54.0437 66.7854 53.3845 67.4446C52.7253 68.1038 52.355 68.9978 52.355 69.9301C52.355 70.8623 52.7253 71.7564 53.3845 72.4156C54.0437 73.0747 54.9378 73.4451 55.87 73.4451" fill="black"/>
<path d="M59.385 87.5049V80.4749H55.87C54.9378 80.4749 54.0437 80.8452 53.3845 81.5044C52.7253 82.1636 52.355 83.0576 52.355 83.9899C52.355 84.9221 52.7253 85.8162 53.3845 86.4754C54.0437 87.1346 54.9378 87.5049 55.87 87.5049" fill="black"/>
<path d="M59.385 101.565V94.5349H55.87C54.9378 94.5349 54.0437 94.9053 53.3845 95.5645C52.7253 96.2236 52.355 97.1177 52.355 98.0499C52.355 98.9822 52.7253 99.8762 53.3845 100.535C54.0437 101.195 54.9378 101.565 55.87 101.565" fill="black"/>
<path d="M55.87 115.625C57.8113 115.625 59.385 114.051 59.385 112.11C59.385 110.169 57.8113 108.595 55.87 108.595C53.9287 108.595 52.355 110.169 52.355 112.11C52.355 114.051 53.9287 115.625 55.87 115.625Z" fill="black"/>
<path d="M59.385 122.655H52.355V129.685H59.385V122.655Z" fill="black"/>
<path d="M52.355 136.715V143.745H55.87C56.8022 143.745 57.6963 143.375 58.3555 142.716C59.0147 142.056 59.385 141.162 59.385 140.23C59.385 139.298 59.0147 138.404 58.3555 137.745C57.6963 137.085 56.8022 136.715 55.87 136.715" fill="black"/>
<path d="M59.385 157.805V150.775H55.87C54.9378 150.775 54.0437 151.145 53.3845 151.804C52.7253 152.464 52.355 153.358 52.355 154.29C52.355 155.222 52.7253 156.116 53.3845 156.775C54.0437 157.435 54.9378 157.805 55.87 157.805" fill="black"/>
<path d="M66.415 66.415H59.385V73.445H66.415V66.415Z" fill="black"/>
<path d="M59.385 80.4751V87.5051H66.415V83.9901C66.415 83.0579 66.0447 82.1638 65.3855 81.5046C64.7263 80.8454 63.8322 80.4751 62.9 80.4751" fill="black"/>
<path d="M66.415 87.5049H59.385V94.5349H66.415V87.5049Z" fill="black"/>
<path d="M66.415 94.5349H59.385V101.565H66.415V94.5349Z" fill="black"/>
<path d="M66.415 108.595V101.565H59.385V105.08C59.385 106.012 59.7554 106.906 60.4146 107.565C61.0737 108.225 61.9678 108.595 62.9 108.595" fill="black"/>
<path d="M59.385 122.655V129.685H62.9C63.8322 129.685 64.7263 129.315 65.3855 128.656C66.0447 127.996 66.415 127.102 66.415 126.17C66.415 125.238 66.0447 124.344 65.3855 123.685C64.7263 123.025 63.8322 122.655 62.9 122.655" fill="black"/>
<path d="M66.415 150.775H59.385V157.805H66.415V150.775Z" fill="black"/>
<path d="M73.4451 24.2351V17.2051H69.9301C68.9978 17.2051 68.1038 17.5754 67.4446 18.2346C66.7854 18.8938 66.4151 19.7879 66.4151 20.7201C66.4151 21.6523 66.7854 22.5464 67.4446 23.2056C68.1038 23.8648 68.9978 24.2351 69.9301 24.2351" fill="black"/>
<path d="M66.415 38.2949H73.445V34.7799C73.445 33.8477 73.0747 32.9536 72.4155 32.2944C71.7563 31.6352 70.8623 31.2649 69.93 31.2649C68.9978 31.2649 68.1037 31.6352 67.4446 32.2944C66.7854 32.9536 66.415 33.8477 66.415 34.7799" fill="black"/>
<path d="M73.445 38.2949H66.415V45.3249H73.445V38.2949Z" fill="black"/>
<path d="M73.445 45.325H66.415V52.355H73.445V45.325Z" fill="black"/>
<path d="M73.4451 52.355H66.4151V55.87C66.4151 56.8022 66.7854 57.6963 67.4446 58.3555C68.1038 59.0147 68.9978 59.385 69.9301 59.385C70.8623 59.385 71.7564 59.0147 72.4156 58.3555C73.0747 57.6963 73.4451 56.8022 73.4451 55.87" fill="black"/>
<path d="M73.445 66.415H66.415V73.445H73.445V66.415Z" fill="black"/>
<path d="M73.4451 73.4451H66.4151V76.9601C66.4151 77.8923 66.7854 78.7864 67.4446 79.4456C68.1038 80.1047 68.9978 80.4751 69.9301 80.4751C70.8623 80.4751 71.7564 80.1047 72.4156 79.4456C73.0747 78.7864 73.4451 77.8923 73.4451 76.9601" fill="black"/>
<path d="M66.415 87.5049V94.5349H69.93C70.8623 94.5349 71.7563 94.1646 72.4155 93.5054C73.0747 92.8462 73.445 91.9521 73.445 91.0199C73.445 90.0876 73.0747 89.1936 72.4155 88.5344C71.7563 87.8752 70.8623 87.5049 69.93 87.5049" fill="black"/>
<path d="M66.415 101.565V108.595H69.93C70.8623 108.595 71.7563 108.225 72.4155 107.565C73.0747 106.906 73.445 106.012 73.445 105.08C73.445 104.148 73.0747 103.254 72.4155 102.594C71.7563 101.935 70.8623 101.565 69.93 101.565" fill="black"/>
<path d="M73.4451 136.715V129.685H69.9301C68.9978 129.685 68.1038 130.055 67.4446 130.715C66.7854 131.374 66.4151 132.268 66.4151 133.2C66.4151 134.132 66.7854 135.026 67.4446 135.686C68.1038 136.345 68.9978 136.715 69.9301 136.715" fill="black"/>
<path d="M66.415 150.775H73.445V143.745H69.93C68.9978 143.745 68.1037 144.115 67.4446 144.774C66.7854 145.434 66.415 146.328 66.415 147.26" fill="black"/>
<path d="M73.445 150.775H66.415V157.805H73.445V150.775Z" fill="black"/>
<path d="M73.445 157.805H66.415V164.835H73.445V157.805Z" fill="black"/>
<path d="M73.4451 164.835H66.4151V168.35C66.4151 169.282 66.7854 170.176 67.4446 170.835C68.1038 171.495 68.9978 171.865 69.9301 171.865C70.8623 171.865 71.7564 171.495 72.4156 170.835C73.0747 170.176 73.4451 169.282 73.4451 168.35" fill="black"/>
<path d="M66.415 185.925H73.445V178.895H69.93C68.9978 178.895 68.1037 179.265 67.4446 179.925C66.7854 180.584 66.415 181.478 66.415 182.41" fill="black"/>
<path d="M73.4451 185.925H66.4151V189.44C66.4151 190.372 66.7854 191.266 67.4446 191.926C68.1038 192.585 68.9978 192.955 69.9301 192.955C70.8623 192.955 71.7564 192.585 72.4155 191.926C73.0747 191.266 73.4451 190.372 73.4451 189.44" fill="black"/>
<path d="M73.4451 207.015V199.985H69.9301C68.9978 199.985 68.1038 200.355 67.4446 201.014C66.7854 201.674 66.4151 202.568 66.4151 203.5C66.4151 204.432 66.7854 205.326 67.4446 205.985C68.1038 206.645 68.9978 207.015 69.9301 207.015" fill="black"/>
<path d="M73.4451 17.2051V24.2351H80.4751V20.7201C80.4751 19.7878 80.1047 18.8938 79.4456 18.2346C78.7864 17.5754 77.8923 17.2051 76.9601 17.2051" fill="black"/>
<path d="M80.4751 31.2649V24.2349H73.4451V27.7499C73.4451 28.6821 73.8154 29.5762 74.4746 30.2354C75.1338 30.8946 76.0279 31.2649 76.9601 31.2649" fill="black"/>
<path d="M73.4451 66.415V73.445H76.9601C77.8923 73.445 78.7864 73.0747 79.4456 72.4155C80.1047 71.7563 80.4751 70.8623 80.4751 69.93C80.4751 68.9978 80.1047 68.1037 79.4456 67.4446C78.7864 66.7854 77.8923 66.415 76.9601 66.415" fill="black"/>
<path d="M76.9601 87.5051C78.9013 87.5051 80.4751 85.9314 80.4751 83.9901C80.4751 82.0488 78.9013 80.4751 76.9601 80.4751C75.0188 80.4751 73.4451 82.0488 73.4451 83.9901C73.4451 85.9314 75.0188 87.5051 76.9601 87.5051Z" fill="black"/>
<path d="M73.4451 122.655H80.4751V119.14C80.4751 118.208 80.1047 117.314 79.4456 116.655C78.7864 115.995 77.8923 115.625 76.9601 115.625C76.0278 115.625 75.1338 115.995 74.4746 116.655C73.8154 117.314 73.4451 118.208 73.4451 119.14" fill="black"/>
<path d="M80.4751 122.655H73.4451V129.685H80.4751V122.655Z" fill="black"/>
<path d="M80.4751 129.685H73.4451V136.715H80.4751V129.685Z" fill="black"/>
<path d="M80.4751 136.715H73.4451V143.745H80.4751V136.715Z" fill="black"/>
<path d="M80.4751 143.745H73.4451V150.775H76.9601C77.8923 150.775 78.7864 150.405 79.4456 149.746C80.1048 149.086 80.4751 148.192 80.4751 147.26" fill="black"/>
<path d="M80.4751 157.805H73.4451V164.835H80.4751V157.805Z" fill="black"/>
<path d="M73.4451 178.895H80.4751V175.38C80.4751 174.448 80.1047 173.554 79.4456 172.895C78.7864 172.235 77.8923 171.865 76.9601 171.865C76.0278 171.865 75.1338 172.235 74.4746 172.895C73.8154 173.554 73.4451 174.448 73.4451 175.38" fill="black"/>
<path d="M80.4751 178.895H73.4451V185.925H80.4751V178.895Z" fill="black"/>
<path d="M73.4451 199.985H80.4751V196.47C80.4751 195.538 80.1047 194.644 79.4455 193.985C78.7864 193.325 77.8923 192.955 76.9601 192.955C76.0278 192.955 75.1338 193.325 74.4746 193.985C73.8154 194.644 73.4451 195.538 73.4451 196.47" fill="black"/>
<path d="M80.4751 199.985H73.4451V207.015H76.9601C77.8923 207.015 78.7864 206.645 79.4456 205.986C80.1048 205.326 80.4751 204.432 80.4751 203.5" fill="black"/>
<path d="M87.5051 24.2351H80.4751V31.2651H87.5051V24.2351Z" fill="black"/>
<path d="M87.5051 31.2649H80.4751V38.2949H87.5051V31.2649Z" fill="black"/>
<path d="M87.5049 45.325V38.295H80.4749V41.81C80.4749 42.7422 80.8452 43.6362 81.5044 44.2954C82.1636 44.9546 83.0576 45.325 83.9899 45.325" fill="black"/>
<path d="M83.9901 59.385C85.9314 59.385 87.5051 57.8113 87.5051 55.87C87.5051 53.9287 85.9314 52.355 83.9901 52.355C82.0488 52.355 80.4751 53.9287 80.4751 55.87C80.4751 57.8113 82.0488 59.385 83.9901 59.385Z" fill="black"/>
<path d="M80.4751 94.5349H87.5051V91.0199C87.5051 90.0877 87.1348 89.1936 86.4756 88.5344C85.8164 87.8752 84.9223 87.5049 83.9901 87.5049C83.0579 87.5049 82.1638 87.8752 81.5046 88.5344C80.8454 89.1936 80.4751 90.0877 80.4751 91.0199" fill="black"/>
<path d="M87.5051 94.5349H80.4751V101.565H87.5051V94.5349Z" fill="black"/>
<path d="M87.5051 101.565H80.4751V108.595H87.5051V101.565Z" fill="black"/>
<path d="M87.5049 115.625V108.595H80.4749V112.11C80.4749 113.042 80.8452 113.936 81.5044 114.595C82.1636 115.255 83.0576 115.625 83.9899 115.625" fill="black"/>
<path d="M87.5051 129.685H80.4751V136.715H87.5051V129.685Z" fill="black"/>
<path d="M80.4751 157.805H87.5051V150.775H83.9901C83.0579 150.775 82.1638 151.145 81.5046 151.804C80.8454 152.464 80.4751 153.358 80.4751 154.29" fill="black"/>
<path d="M87.5051 157.805H80.4751V164.835H87.5051V157.805Z" fill="black"/>
<path d="M87.5049 164.835H80.4749V168.35C80.4749 169.282 80.8452 170.176 81.5044 170.835C82.1636 171.495 83.0576 171.865 83.9899 171.865C84.9221 171.865 85.8162 171.495 86.4754 170.835C87.1346 170.176 87.5049 169.282 87.5049 168.35" fill="black"/>
<path d="M87.5051 178.895H80.4751V185.925H87.5051V178.895Z" fill="black"/>
<path d="M87.5049 192.955V185.925H80.4749V189.44C80.4749 190.372 80.8452 191.266 81.5044 191.926C82.1636 192.585 83.0576 192.955 83.9899 192.955" fill="black"/>
<path d="M94.5349 24.2351H87.5049V31.2651H94.5349V24.2351Z" fill="black"/>
<path d="M94.5349 31.2649H87.5049V38.2949H94.5349V31.2649Z" fill="black"/>
<path d="M94.5349 38.2949H87.5049V45.3249H94.5349V38.2949Z" fill="black"/>
<path d="M94.5349 108.595H87.5049V115.625H94.5349V108.595Z" fill="black"/>
<path d="M94.5349 115.625H87.5049V122.655H94.5349V115.625Z" fill="black"/>
<path d="M94.5349 122.655H87.5049V129.685H94.5349V122.655Z" fill="black"/>
<path d="M94.5349 129.685H87.5049V136.715H91.0199C91.9521 136.715 92.8462 136.345 93.5054 135.686C94.1646 135.026 94.5349 134.132 94.5349 133.2" fill="black"/>
<path d="M87.5049 150.775H94.5349V143.745H91.0199C90.0876 143.745 89.1936 144.115 88.5344 144.774C87.8752 145.434 87.5049 146.328 87.5049 147.26" fill="black"/>
<path d="M94.5349 150.775H87.5049V157.805H91.0199C91.9521 157.805 92.8462 157.435 93.5054 156.775C94.1646 156.116 94.5349 155.222 94.5349 154.29" fill="black"/>
<path d="M87.5049 178.895V185.925H94.5349V182.41C94.5349 181.478 94.1646 180.584 93.5054 179.925C92.8462 179.265 91.9521 178.895 91.0199 178.895" fill="black"/>
<path d="M94.5349 185.925H87.5049V192.955H94.5349V185.925Z" fill="black"/>
<path d="M91.0199 214.045C92.9612 214.045 94.5349 212.471 94.5349 210.53C94.5349 208.589 92.9612 207.015 91.0199 207.015C89.0786 207.015 87.5049 208.589 87.5049 210.53C87.5049 212.471 89.0786 214.045 91.0199 214.045Z" fill="black"/>
<path d="M98.0499 17.205C99.9912 17.205 101.565 15.6313 101.565 13.69C101.565 11.7488 99.9912 10.175 98.0499 10.175C96.1086 10.175 94.5349 11.7488 94.5349 13.69C94.5349 15.6313 96.1086 17.205 98.0499 17.205Z" fill="black"/>
<path d="M94.5349 24.2351V31.2651H101.565V27.7501C101.565 26.8179 101.195 25.9238 100.535 25.2646C99.8762 24.6054 98.9821 24.2351 98.0499 24.2351" fill="black"/>
<path d="M101.565 31.2649H94.5349V38.2949H101.565V31.2649Z" fill="black"/>
<path d="M101.565 38.2949H94.5349V45.3249H101.565V38.2949Z" fill="black"/>
<path d="M98.0499 59.385C99.9912 59.385 101.565 57.8113 101.565 55.87C101.565 53.9287 99.9912 52.355 98.0499 52.355C96.1086 52.355 94.5349 53.9287 94.5349 55.87C94.5349 57.8113 96.1086 59.385 98.0499 59.385Z" fill="black"/>
<path d="M101.565 80.4751V73.4451H98.0499C97.1177 73.4451 96.2236 73.8154 95.5645 74.4746C94.9053 75.1338 94.5349 76.0279 94.5349 76.9601C94.5349 77.8923 94.9053 78.7864 95.5645 79.4456C96.2236 80.1048 97.1177 80.4751 98.0499 80.4751" fill="black"/>
<path d="M94.5349 108.595V115.625H98.0499C98.9821 115.625 99.8762 115.255 100.535 114.595C101.195 113.936 101.565 113.042 101.565 112.11C101.565 111.178 101.195 110.284 100.535 109.624C99.8762 108.965 98.9821 108.595 98.0499 108.595" fill="black"/>
<path d="M101.565 122.655H94.5349V129.685H101.565V122.655Z" fill="black"/>
<path d="M94.5349 143.745V150.775H98.0499C98.9821 150.775 99.8762 150.405 100.535 149.746C101.195 149.086 101.565 148.192 101.565 147.26C101.565 146.328 101.195 145.434 100.535 144.775C99.8762 144.115 98.9821 143.745 98.0499 143.745" fill="black"/>
<path d="M94.5349 164.835H101.565V161.32C101.565 160.388 101.195 159.494 100.535 158.834C99.8762 158.175 98.9821 157.805 98.0499 157.805C97.1177 157.805 96.2236 158.175 95.5644 158.834C94.9052 159.494 94.5349 160.388 94.5349 161.32" fill="black"/>
<path d="M101.565 171.865V164.835H94.5349V168.35C94.5349 169.282 94.9053 170.176 95.5645 170.835C96.2236 171.495 97.1177 171.865 98.0499 171.865" fill="black"/>
<path d="M94.5349 185.925V192.955H98.0499C98.9821 192.955 99.8762 192.585 100.535 191.926C101.195 191.266 101.565 190.372 101.565 189.44C101.565 188.508 101.195 187.614 100.535 186.955C99.8762 186.295 98.9821 185.925 98.0499 185.925" fill="black"/>
<path d="M98.0499 207.015C99.9912 207.015 101.565 205.441 101.565 203.5C101.565 201.559 99.9912 199.985 98.0499 199.985C96.1086 199.985 94.5349 201.559 94.5349 203.5C94.5349 205.441 96.1086 207.015 98.0499 207.015Z" fill="black"/>
<path d="M105.08 24.2351C107.021 24.2351 108.595 22.6614 108.595 20.7201C108.595 18.7788 107.021 17.2051 105.08 17.2051C103.139 17.2051 101.565 18.7788 101.565 20.7201C101.565 22.6614 103.139 24.2351 105.08 24.2351Z" fill="black"/>
<path d="M101.565 38.2949V45.3249H105.08C106.012 45.3249 106.906 44.9546 107.565 44.2954C108.225 43.6362 108.595 42.7422 108.595 41.8099C108.595 40.8777 108.225 39.9836 107.565 39.3244C106.906 38.6653 106.012 38.2949 105.08 38.2949" fill="black"/>
<path d="M101.565 73.4451H108.595V66.4151H105.08C104.148 66.4151 103.254 66.7854 102.594 67.4446C101.935 68.1038 101.565 68.9978 101.565 69.9301" fill="black"/>
<path d="M108.595 73.4451H101.565V80.4751H105.08C106.012 80.4751 106.906 80.1047 107.565 79.4456C108.225 78.7864 108.595 77.8923 108.595 76.9601" fill="black"/>
<path d="M101.565 94.5349H108.595V91.0199C108.595 90.0877 108.225 89.1936 107.565 88.5344C106.906 87.8752 106.012 87.5049 105.08 87.5049C104.148 87.5049 103.254 87.8752 102.594 88.5344C101.935 89.1936 101.565 90.0877 101.565 91.0199" fill="black"/>
<path d="M108.595 94.5349H101.565V101.565H108.595V94.5349Z" fill="black"/>
<path d="M108.595 101.565H101.565V105.08C101.565 106.012 101.935 106.906 102.594 107.565C103.254 108.225 104.148 108.595 105.08 108.595C106.012 108.595 106.906 108.225 107.565 107.565C108.225 106.906 108.595 106.012 108.595 105.08" fill="black"/>
<path d="M108.595 122.655H101.565V129.685H108.595V122.655Z" fill="black"/>
<path d="M108.595 129.685H101.565V136.715H108.595V129.685Z" fill="black"/>
<path d="M108.595 136.715H101.565V140.23C101.565 141.162 101.935 142.056 102.594 142.716C103.254 143.375 104.148 143.745 105.08 143.745C106.012 143.745 106.906 143.375 107.565 142.716C108.225 142.056 108.595 141.162 108.595 140.23" fill="black"/>
<path d="M108.595 164.835H101.565V171.865H108.595V164.835Z" fill="black"/>
<path d="M105.08 185.925C107.021 185.925 108.595 184.351 108.595 182.41C108.595 180.469 107.021 178.895 105.08 178.895C103.139 178.895 101.565 180.469 101.565 182.41C101.565 184.351 103.139 185.925 105.08 185.925Z" fill="black"/>
<path d="M105.08 199.985C107.021 199.985 108.595 198.411 108.595 196.47C108.595 194.529 107.021 192.955 105.08 192.955C103.139 192.955 101.565 194.529 101.565 196.47C101.565 198.411 103.139 199.985 105.08 199.985Z" fill="black"/>
<path d="M108.595 214.045V207.015H105.08C104.148 207.015 103.254 207.385 102.594 208.044C101.935 208.704 101.565 209.598 101.565 210.53C101.565 211.462 101.935 212.356 102.594 213.015C103.254 213.675 104.148 214.045 105.08 214.045" fill="black"/>
<path d="M115.625 31.2649V24.2349H112.11C111.178 24.2349 110.284 24.6052 109.625 25.2644C108.965 25.9236 108.595 26.8177 108.595 27.7499C108.595 28.6821 108.965 29.5762 109.625 30.2354C110.284 30.8946 111.178 31.2649 112.11 31.2649" fill="black"/>
<path d="M108.595 52.355H115.625V45.325H112.11C111.178 45.325 110.284 45.6953 109.624 46.3545C108.965 47.0137 108.595 47.9077 108.595 48.84" fill="black"/>
<path d="M115.625 52.355H108.595V55.87C108.595 56.8022 108.965 57.6963 109.625 58.3555C110.284 59.0147 111.178 59.385 112.11 59.385C113.042 59.385 113.936 59.0147 114.595 58.3555C115.255 57.6963 115.625 56.8022 115.625 55.87" fill="black"/>
<path d="M108.595 66.415V73.445H112.11C113.042 73.445 113.936 73.0747 114.595 72.4155C115.255 71.7563 115.625 70.8623 115.625 69.93C115.625 68.9978 115.255 68.1037 114.595 67.4446C113.936 66.7854 113.042 66.415 112.11 66.415" fill="black"/>
<path d="M115.625 94.5349H108.595V101.565H115.625V94.5349Z" fill="black"/>
<path d="M108.595 122.655H115.625V115.625H112.11C111.178 115.625 110.284 115.995 109.624 116.655C108.965 117.314 108.595 118.208 108.595 119.14" fill="black"/>
<path d="M115.625 122.655H108.595V129.685H115.625V122.655Z" fill="black"/>
<path d="M108.595 150.775H115.625V147.26C115.625 146.328 115.255 145.434 114.595 144.774C113.936 144.115 113.042 143.745 112.11 143.745C111.178 143.745 110.284 144.115 109.624 144.774C108.965 145.434 108.595 146.328 108.595 147.26" fill="black"/>
<path d="M115.625 157.805V150.775H108.595V154.29C108.595 155.222 108.965 156.116 109.625 156.775C110.284 157.435 111.178 157.805 112.11 157.805" fill="black"/>
<path d="M108.595 164.835V171.865H115.625V168.35C115.625 167.418 115.255 166.524 114.595 165.864C113.936 165.205 113.042 164.835 112.11 164.835" fill="black"/>
<path d="M115.625 171.865H108.595V175.38C108.595 176.312 108.965 177.206 109.625 177.865C110.284 178.525 111.178 178.895 112.11 178.895C113.042 178.895 113.936 178.525 114.595 177.865C115.255 177.206 115.625 176.312 115.625 175.38" fill="black"/>
<path d="M115.625 192.955V185.925H112.11C111.178 185.925 110.284 186.295 109.625 186.955C108.965 187.614 108.595 188.508 108.595 189.44C108.595 190.372 108.965 191.266 109.625 191.926C110.284 192.585 111.178 192.955 112.11 192.955" fill="black"/>
<path d="M108.595 207.015V214.045H112.11C113.042 214.045 113.936 213.675 114.595 213.015C115.255 212.356 115.625 211.462 115.625 210.53C115.625 209.598 115.255 208.704 114.595 208.044C113.936 207.385 113.042 207.015 112.11 207.015" fill="black"/>
<path d="M115.625 24.2351H122.655V17.2051H119.14C118.208 17.2051 117.314 17.5754 116.655 18.2346C115.995 18.8938 115.625 19.7879 115.625 20.7201" fill="black"/>
<path d="M122.655 24.2351H115.625V31.2651H122.655V24.2351Z" fill="black"/>
<path d="M122.655 31.2649H115.625V38.2949H122.655V31.2649Z" fill="black"/>
<path d="M122.655 38.2949H115.625V45.3249H122.655V38.2949Z" fill="black"/>
<path d="M122.655 45.325H115.625V52.355H122.655V45.325Z" fill="black"/>
<path d="M122.655 66.415V59.385H119.14C118.208 59.385 117.314 59.7554 116.655 60.4146C115.995 61.0737 115.625 61.9678 115.625 62.9C115.625 63.8323 115.995 64.7263 116.655 65.3855C117.314 66.0447 118.208 66.415 119.14 66.415" fill="black"/>
<path d="M115.625 87.5049H122.655V83.9899C122.655 83.0576 122.285 82.1636 121.625 81.5044C120.966 80.8452 120.072 80.4749 119.14 80.4749C118.208 80.4749 117.314 80.8452 116.655 81.5044C115.995 82.1636 115.625 83.0576 115.625 83.9899" fill="black"/>
<path d="M122.655 87.5049H115.625V94.5349H122.655V87.5049Z" fill="black"/>
<path d="M122.655 94.5349H115.625V101.565H122.655V94.5349Z" fill="black"/>
<path d="M122.655 101.565H115.625V108.595H122.655V101.565Z" fill="black"/>
<path d="M122.655 108.595H115.625V115.625H122.655V108.595Z" fill="black"/>
<path d="M122.655 115.625H115.625V122.655H122.655V115.625Z" fill="black"/>
<path d="M122.655 122.655H115.625V129.685H119.14C120.072 129.685 120.966 129.315 121.626 128.656C122.285 127.996 122.655 127.102 122.655 126.17" fill="black"/>
<path d="M115.625 150.775V157.805H119.14C120.072 157.805 120.966 157.435 121.625 156.775C122.285 156.116 122.655 155.222 122.655 154.29C122.655 153.358 122.285 152.464 121.625 151.804C120.966 151.145 120.072 150.775 119.14 150.775" fill="black"/>
<path d="M115.625 185.925H122.655V178.895H119.14C118.208 178.895 117.314 179.265 116.655 179.925C115.995 180.584 115.625 181.478 115.625 182.41" fill="black"/>
<path d="M122.655 185.925H115.625V192.955H122.655V185.925Z" fill="black"/>
<path d="M122.655 192.955H115.625V196.47C115.625 197.402 115.995 198.296 116.655 198.956C117.314 199.615 118.208 199.985 119.14 199.985C120.072 199.985 120.966 199.615 121.626 198.956C122.285 198.296 122.655 197.402 122.655 196.47" fill="black"/>
<path d="M122.655 17.2051H129.685V10.1751H126.17C125.238 10.1751 124.344 10.5454 123.685 11.2046C123.025 11.8638 122.655 12.7578 122.655 13.6901" fill="black"/>
<path d="M129.685 17.2051H122.655V24.2351H129.685V17.2051Z" fill="black"/>
<path d="M129.685 31.2649H122.655V38.2949H129.685V31.2649Z" fill="black"/>
<path d="M122.655 45.325V52.355H129.685V48.84C129.685 47.9077 129.315 47.0137 128.656 46.3545C127.996 45.6953 127.102 45.325 126.17 45.325" fill="black"/>
<path d="M129.685 52.355H122.655V59.385H129.685V52.355Z" fill="black"/>
<path d="M129.685 59.385H122.655V66.415H129.685V59.385Z" fill="black"/>
<path d="M122.655 87.5049V94.5349H126.17C127.102 94.5349 127.996 94.1646 128.656 93.5054C129.315 92.8462 129.685 91.9521 129.685 91.0199C129.685 90.0876 129.315 89.1936 128.656 88.5344C127.996 87.8752 127.102 87.5049 126.17 87.5049" fill="black"/>
<path d="M129.685 108.595H122.655V115.625H129.685V108.595Z" fill="black"/>
<path d="M122.655 136.715H129.685V129.685H126.17C125.238 129.685 124.344 130.055 123.685 130.715C123.025 131.374 122.655 132.268 122.655 133.2" fill="black"/>
<path d="M129.685 143.745V136.715H122.655V140.23C122.655 141.162 123.025 142.056 123.685 142.716C124.344 143.375 125.238 143.745 126.17 143.745" fill="black"/>
<path d="M129.685 178.895H122.655V185.925H129.685V178.895Z" fill="black"/>
<path d="M129.685 185.925H122.655V192.955H129.685V185.925Z" fill="black"/>
<path d="M126.17 214.045C128.111 214.045 129.685 212.471 129.685 210.53C129.685 208.589 128.111 207.015 126.17 207.015C124.229 207.015 122.655 208.589 122.655 210.53C122.655 212.471 124.229 214.045 126.17 214.045Z" fill="black"/>
<path d="M136.715 10.175H129.685V17.205H136.715V10.175Z" fill="black"/>
<path d="M136.715 17.2051H129.685V24.2351H136.715V17.2051Z" fill="black"/>
<path d="M136.715 24.2351H129.685V31.2651H136.715V24.2351Z" fill="black"/>
<path d="M136.715 31.2649H129.685V38.2949H136.715V31.2649Z" fill="black"/>
<path d="M136.715 38.2949H129.685V41.8099C129.685 42.7422 130.055 43.6362 130.715 44.2954C131.374 44.9546 132.268 45.3249 133.2 45.3249C134.132 45.3249 135.026 44.9546 135.686 44.2954C136.345 43.6362 136.715 42.7422 136.715 41.8099" fill="black"/>
<path d="M129.685 59.385V66.415H136.715V62.9C136.715 61.9678 136.345 61.0737 135.686 60.4145C135.026 59.7553 134.132 59.385 133.2 59.385" fill="black"/>
<path d="M136.715 66.415H129.685V73.445H136.715V66.415Z" fill="black"/>
<path d="M136.715 73.4451H129.685V76.9601C129.685 77.8923 130.055 78.7864 130.715 79.4456C131.374 80.1047 132.268 80.4751 133.2 80.4751C134.132 80.4751 135.026 80.1047 135.686 79.4456C136.345 78.7864 136.715 77.8923 136.715 76.9601" fill="black"/>
<path d="M136.715 101.565V94.5349H133.2C132.268 94.5349 131.374 94.9053 130.715 95.5645C130.055 96.2236 129.685 97.1177 129.685 98.0499C129.685 98.9822 130.055 99.8762 130.715 100.535C131.374 101.195 132.268 101.565 133.2 101.565" fill="black"/>
<path d="M136.715 108.595H129.685V115.625H136.715V108.595Z" fill="black"/>
<path d="M136.715 129.685H129.685V136.715H136.715V129.685Z" fill="black"/>
<path d="M136.715 136.715H129.685V143.745H136.715V136.715Z" fill="black"/>
<path d="M136.715 143.745H129.685V150.775H136.715V143.745Z" fill="black"/>
<path d="M136.715 157.805V150.775H129.685V154.29C129.685 155.222 130.055 156.116 130.715 156.775C131.374 157.435 132.268 157.805 133.2 157.805" fill="black"/>
<path d="M133.2 171.865C135.141 171.865 136.715 170.291 136.715 168.35C136.715 166.409 135.141 164.835 133.2 164.835C131.259 164.835 129.685 166.409 129.685 168.35C129.685 170.291 131.259 171.865 133.2 171.865Z" fill="black"/>
<path d="M129.685 178.895V185.925H136.715V182.41C136.715 181.478 136.345 180.584 135.686 179.925C135.026 179.265 134.132 178.895 133.2 178.895" fill="black"/>
<path d="M136.715 185.925H129.685V192.955H136.715V185.925Z" fill="black"/>
<path d="M136.715 192.955H129.685V196.47C129.685 197.402 130.055 198.296 130.715 198.956C131.374 199.615 132.268 199.985 133.2 199.985C134.132 199.985 135.026 199.615 135.686 198.956C136.345 198.296 136.715 197.402 136.715 196.47" fill="black"/>
<path d="M143.745 10.175H136.715V17.205H143.745V10.175Z" fill="black"/>
<path d="M143.745 17.2051H136.715V24.2351H143.745V17.2051Z" fill="black"/>
<path d="M143.745 24.2351H136.715V31.2651H143.745V24.2351Z" fill="black"/>
<path d="M143.745 31.2649H136.715V38.2949H140.23C141.162 38.2949 142.056 37.9246 142.716 37.2654C143.375 36.6062 143.745 35.7121 143.745 34.7799" fill="black"/>
<path d="M136.715 52.355H143.745V45.325H140.23C139.298 45.325 138.404 45.6953 137.745 46.3545C137.085 47.0137 136.715 47.9077 136.715 48.84" fill="black"/>
<path d="M143.745 52.355H136.715V55.87C136.715 56.8022 137.085 57.6963 137.745 58.3555C138.404 59.0147 139.298 59.385 140.23 59.385C141.162 59.385 142.056 59.0147 142.716 58.3555C143.375 57.6963 143.745 56.8022 143.745 55.87" fill="black"/>
<path d="M143.745 66.415H136.715V73.445H143.745V66.415Z" fill="black"/>
<path d="M136.715 94.5349H143.745V87.5049H140.23C139.298 87.5049 138.404 87.8752 137.745 88.5344C137.085 89.1936 136.715 90.0877 136.715 91.0199" fill="black"/>
<path d="M143.745 94.5349H136.715V101.565H143.745V94.5349Z" fill="black"/>
<path d="M136.715 108.595V115.625H140.23C141.162 115.625 142.056 115.255 142.716 114.595C143.375 113.936 143.745 113.042 143.745 112.11C143.745 111.178 143.375 110.284 142.716 109.624C142.056 108.965 141.162 108.595 140.23 108.595" fill="black"/>
<path d="M136.715 129.685H143.745V122.655H140.23C139.298 122.655 138.404 123.025 137.745 123.685C137.085 124.344 136.715 125.238 136.715 126.17" fill="black"/>
<path d="M143.745 129.685H136.715V136.715H140.23C141.162 136.715 142.056 136.345 142.716 135.686C143.375 135.026 143.745 134.132 143.745 133.2" fill="black"/>
<path d="M136.715 143.745V150.775H143.745V147.26C143.745 146.328 143.375 145.434 142.716 144.775C142.056 144.115 141.162 143.745 140.23 143.745" fill="black"/>
<path d="M143.745 150.775H136.715V157.805H143.745V150.775Z" fill="black"/>
<path d="M140.23 214.045C142.171 214.045 143.745 212.471 143.745 210.53C143.745 208.589 142.171 207.015 140.23 207.015C138.289 207.015 136.715 208.589 136.715 210.53C136.715 212.471 138.289 214.045 140.23 214.045Z" fill="black"/>
<path d="M150.775 10.175H143.745V17.205H150.775V10.175Z" fill="black"/>
<path d="M150.775 17.2051H143.745V24.2351H150.775V17.2051Z" fill="black"/>
<path d="M150.775 24.2351H143.745V31.2651H147.26C148.192 31.2651 149.086 30.8948 149.745 30.2356C150.405 29.5764 150.775 28.6823 150.775 27.7501" fill="black"/>
<path d="M143.745 45.325H150.775V38.295H147.26C146.328 38.295 145.434 38.6653 144.775 39.3245C144.115 39.9837 143.745 40.8777 143.745 41.81" fill="black"/>
<path d="M150.775 45.325H143.745V52.355H150.775V45.325Z" fill="black"/>
<path d="M143.745 66.415H150.775V59.385H147.26C146.328 59.385 145.434 59.7554 144.775 60.4146C144.115 61.0737 143.745 61.9678 143.745 62.9" fill="black"/>
<path d="M150.775 66.415H143.745V73.445H147.26C148.192 73.445 149.086 73.0747 149.745 72.4155C150.405 71.7563 150.775 70.8623 150.775 69.93" fill="black"/>
<path d="M143.745 87.5049H150.775V83.9899C150.775 83.0576 150.405 82.1636 149.746 81.5044C149.086 80.8452 148.192 80.4749 147.26 80.4749C146.328 80.4749 145.434 80.8452 144.775 81.5044C144.115 82.1636 143.745 83.0576 143.745 83.9899" fill="black"/>
<path d="M150.775 87.5049H143.745V94.5349H150.775V87.5049Z" fill="black"/>
<path d="M150.775 94.5349H143.745V101.565H150.775V94.5349Z" fill="black"/>
<path d="M143.745 122.655H150.775V119.14C150.775 118.208 150.405 117.314 149.746 116.655C149.086 115.995 148.192 115.625 147.26 115.625C146.328 115.625 145.434 115.995 144.775 116.655C144.115 117.314 143.745 118.208 143.745 119.14" fill="black"/>
<path d="M150.775 122.655H143.745V129.685H147.26C148.192 129.685 149.086 129.315 149.745 128.656C150.405 127.996 150.775 127.102 150.775 126.17" fill="black"/>
<path d="M150.775 150.775H143.745V157.805H150.775V150.775Z" fill="black"/>
<path d="M150.775 157.805H143.745V164.835H150.775V157.805Z" fill="black"/>
<path d="M150.775 164.835H143.745V171.865H150.775V164.835Z" fill="black"/>
<path d="M150.775 178.895V171.865H143.745V175.38C143.745 176.312 144.115 177.206 144.774 177.866C145.434 178.525 146.328 178.895 147.26 178.895" fill="black"/>
<path d="M143.745 199.985H150.775V192.955H147.26C146.328 192.955 145.434 193.325 144.775 193.985C144.115 194.644 143.745 195.538 143.745 196.47" fill="black"/>
<path d="M150.775 199.985H143.745V203.5C143.745 204.432 144.115 205.326 144.774 205.986C145.434 206.645 146.328 207.015 147.26 207.015C148.192 207.015 149.086 206.645 149.745 205.986C150.405 205.326 150.775 204.432 150.775 203.5" fill="black"/>
<path d="M150.775 10.175V17.205H157.805V13.69C157.805 12.7578 157.435 11.8638 156.775 11.2046C156.116 10.5454 155.222 10.175 154.29 10.175" fill="black"/>
<path d="M157.805 17.2051H150.775V24.2351H154.29C155.222 24.2351 156.116 23.8648 156.775 23.2056C157.435 22.5464 157.805 21.6523 157.805 20.7201" fill="black"/>
<path d="M150.775 38.2949V45.3249H157.805V41.8099C157.805 40.8777 157.435 39.9836 156.775 39.3244C156.116 38.6653 155.222 38.2949 154.29 38.2949" fill="black"/>
<path d="M157.805 45.325H150.775V52.355H157.805V45.325Z" fill="black"/>
<path d="M157.805 52.355H150.775V59.385H157.805V52.355Z" fill="black"/>
<path d="M157.805 59.385H150.775V66.415H154.29C155.222 66.415 156.116 66.0447 156.775 65.3855C157.435 64.7263 157.805 63.8322 157.805 62.9" fill="black"/>
<path d="M150.775 94.5349V101.565H157.805V98.0499C157.805 97.1177 157.435 96.2236 156.775 95.5644C156.116 94.9052 155.222 94.5349 154.29 94.5349" fill="black"/>
<path d="M157.805 108.595V101.565H150.775V105.08C150.775 106.012 151.145 106.906 151.804 107.565C152.464 108.225 153.358 108.595 154.29 108.595" fill="black"/>
<path d="M150.775 136.715H157.805V129.685H154.29C153.358 129.685 152.464 130.055 151.804 130.715C151.145 131.374 150.775 132.268 150.775 133.2" fill="black"/>
<path d="M157.805 136.715H150.775V143.745H157.805V136.715Z" fill="black"/>
<path d="M157.805 143.745H150.775V150.775H157.805V143.745Z" fill="black"/>
<path d="M157.805 150.775H150.775V157.805H157.805V150.775Z" fill="black"/>
<path d="M157.805 157.805H150.775V164.835H157.805V157.805Z" fill="black"/>
<path d="M157.805 164.835H150.775V171.865H157.805V164.835Z" fill="black"/>
<path d="M157.805 171.865H150.775V178.895H157.805V171.865Z" fill="black"/>
<path d="M157.805 178.895H150.775V185.925H157.805V178.895Z" fill="black"/>
<path d="M157.805 185.925H150.775V192.955H157.805V185.925Z" fill="black"/>
<path d="M157.805 192.955H150.775V199.985H157.805V192.955Z" fill="black"/>
<path d="M157.805 73.4451H164.835V69.9301C164.835 68.9978 164.465 68.1038 163.805 67.4446C163.146 66.7854 162.252 66.4151 161.32 66.4151C160.388 66.4151 159.494 66.7854 158.834 67.4446C158.175 68.1038 157.805 68.9978 157.805 69.9301" fill="black"/>
<path d="M164.835 73.4451H157.805V76.9601C157.805 77.8923 158.175 78.7864 158.834 79.4456C159.494 80.1047 160.388 80.4751 161.32 80.4751C162.252 80.4751 163.146 80.1047 163.805 79.4456C164.465 78.7864 164.835 77.8923 164.835 76.9601" fill="black"/>
<path d="M164.835 101.565H157.805V108.595H164.835V101.565Z" fill="black"/>
<path d="M164.835 122.655V115.625H161.32C160.388 115.625 159.494 115.995 158.834 116.655C158.175 117.314 157.805 118.208 157.805 119.14C157.805 120.072 158.175 120.966 158.834 121.626C159.494 122.285 160.388 122.655 161.32 122.655" fill="black"/>
<path d="M157.805 129.685V136.715H164.835V133.2C164.835 132.268 164.465 131.374 163.805 130.715C163.146 130.055 162.252 129.685 161.32 129.685" fill="black"/>
<path d="M164.835 136.715H157.805V143.745H164.835V136.715Z" fill="black"/>
<path d="M164.835 143.745H157.805V150.775H164.835V143.745Z" fill="black"/>
<path d="M164.835 150.775H157.805V157.805H164.835V150.775Z" fill="black"/>
<path d="M164.835 178.895H157.805V185.925H164.835V178.895Z" fill="black"/>
<path d="M164.835 185.925H157.805V192.955H164.835V185.925Z" fill="black"/>
<path d="M164.835 192.955H157.805V199.985H164.835V192.955Z" fill="black"/>
<path d="M171.865 87.5049V80.4749H168.35C167.418 80.4749 166.524 80.8452 165.865 81.5044C165.205 82.1636 164.835 83.0576 164.835 83.9899C164.835 84.9221 165.205 85.8162 165.865 86.4754C166.524 87.1346 167.418 87.5049 168.35 87.5049" fill="black"/>
<path d="M164.835 101.565H171.865V98.0499C171.865 97.1177 171.495 96.2236 170.835 95.5645C170.176 94.9053 169.282 94.5349 168.35 94.5349C167.418 94.5349 166.524 94.9053 165.864 95.5645C165.205 96.2236 164.835 97.1177 164.835 98.0499" fill="black"/>
<path d="M171.865 101.565H164.835V108.595H171.865V101.565Z" fill="black"/>
<path d="M171.865 108.595H164.835V115.625H171.865V108.595Z" fill="black"/>
<path d="M171.865 115.625H164.835V122.655H171.865V115.625Z" fill="black"/>
<path d="M171.865 129.685V122.655H164.835V126.17C164.835 127.102 165.205 127.996 165.865 128.656C166.524 129.315 167.418 129.685 168.35 129.685" fill="black"/>
<path d="M171.865 143.745H164.835V150.775H171.865V143.745Z" fill="black"/>
<path d="M171.865 150.775H164.835V157.805H171.865V150.775Z" fill="black"/>
<path d="M168.35 171.865C170.291 171.865 171.865 170.291 171.865 168.35C171.865 166.409 170.291 164.835 168.35 164.835C166.409 164.835 164.835 166.409 164.835 168.35C164.835 170.291 166.409 171.865 168.35 171.865Z" fill="black"/>
<path d="M171.865 178.895H164.835V185.925H171.865V178.895Z" fill="black"/>
<path d="M164.835 192.955V199.985H171.865V196.47C171.865 195.538 171.495 194.644 170.835 193.985C170.176 193.325 169.282 192.955 168.35 192.955" fill="black"/>
<path d="M171.865 199.985H164.835V203.5C164.835 204.432 165.205 205.326 165.865 205.986C166.524 206.645 167.418 207.015 168.35 207.015C169.282 207.015 170.176 206.645 170.835 205.986C171.495 205.326 171.865 204.432 171.865 203.5" fill="black"/>
<path d="M178.895 73.4451V66.4151H175.38C174.448 66.4151 173.554 66.7854 172.895 67.4446C172.235 68.1038 171.865 68.9978 171.865 69.9301C171.865 70.8623 172.235 71.7564 172.895 72.4156C173.554 73.0747 174.448 73.4451 175.38 73.4451" fill="black"/>
<path d="M178.895 80.4751H171.865V87.5051H178.895V80.4751Z" fill="black"/>
<path d="M178.895 101.565H171.865V108.595H178.895V101.565Z" fill="black"/>
<path d="M178.895 108.595H171.865V115.625H178.895V108.595Z" fill="black"/>
<path d="M171.865 122.655V129.685H175.38C176.312 129.685 177.206 129.315 177.865 128.656C178.525 127.996 178.895 127.102 178.895 126.17C178.895 125.238 178.525 124.344 177.865 123.685C177.206 123.025 176.312 122.655 175.38 122.655" fill="black"/>
<path d="M171.865 143.745H178.895V140.23C178.895 139.298 178.525 138.404 177.865 137.745C177.206 137.085 176.312 136.715 175.38 136.715C174.448 136.715 173.554 137.085 172.895 137.745C172.235 138.404 171.865 139.298 171.865 140.23" fill="black"/>
<path d="M178.895 143.745H171.865V150.775H178.895V143.745Z" fill="black"/>
<path d="M178.895 150.775H171.865V157.805H178.895V150.775Z" fill="black"/>
<path d="M178.895 178.895H171.865V185.925H178.895V178.895Z" fill="black"/>
<path d="M178.895 185.925H171.865V189.44C171.865 190.372 172.235 191.266 172.895 191.926C173.554 192.585 174.448 192.955 175.38 192.955C176.312 192.955 177.206 192.585 177.865 191.926C178.525 191.266 178.895 190.372 178.895 189.44" fill="black"/>
<path d="M185.925 66.415H178.895V73.445H185.925V66.415Z" fill="black"/>
<path d="M185.925 73.4451H178.895V80.4751H185.925V73.4451Z" fill="black"/>
<path d="M185.925 80.4751H178.895V87.5051H185.925V80.4751Z" fill="black"/>
<path d="M178.895 101.565H185.925V94.5349H182.41C181.478 94.5349 180.584 94.9053 179.925 95.5645C179.265 96.2236 178.895 97.1177 178.895 98.0499" fill="black"/>
<path d="M185.925 101.565H178.895V108.595H185.925V101.565Z" fill="black"/>
<path d="M185.925 108.595H178.895V115.625H185.925V108.595Z" fill="black"/>
<path d="M185.925 115.625H178.895V119.14C178.895 120.072 179.265 120.966 179.925 121.625C180.584 122.285 181.478 122.655 182.41 122.655C183.342 122.655 184.236 122.285 184.896 121.625C185.555 120.966 185.925 120.072 185.925 119.14" fill="black"/>
<path d="M185.925 136.715V129.685H182.41C181.478 129.685 180.584 130.055 179.925 130.715C179.265 131.374 178.895 132.268 178.895 133.2C178.895 134.132 179.265 135.026 179.925 135.686C180.584 136.345 181.478 136.715 182.41 136.715" fill="black"/>
<path d="M178.895 143.745V150.775H185.925V147.26C185.925 146.328 185.555 145.434 184.896 144.775C184.236 144.115 183.342 143.745 182.41 143.745" fill="black"/>
<path d="M185.925 150.775H178.895V157.805H185.925V150.775Z" fill="black"/>
<path d="M185.925 157.805H178.895V164.835H185.925V157.805Z" fill="black"/>
<path d="M185.925 164.835H178.895V171.865H185.925V164.835Z" fill="black"/>
<path d="M185.925 171.865H178.895V178.895H185.925V171.865Z" fill="black"/>
<path d="M185.925 178.895H178.895V185.925H182.41C183.342 185.925 184.236 185.555 184.896 184.896C185.555 184.236 185.925 183.342 185.925 182.41" fill="black"/>
<path d="M178.895 207.015H185.925V199.985H182.41C181.478 199.985 180.584 200.355 179.925 201.014C179.265 201.674 178.895 202.568 178.895 203.5" fill="black"/>
<path d="M185.925 207.015H178.895V210.53C178.895 211.462 179.265 212.356 179.925 213.015C180.584 213.675 181.478 214.045 182.41 214.045C183.342 214.045 184.236 213.675 184.896 213.015C185.555 212.356 185.925 211.462 185.925 210.53" fill="black"/>
<path d="M185.925 66.415V73.445H192.955V69.93C192.955 68.9978 192.585 68.1037 191.926 67.4446C191.266 66.7854 190.372 66.415 189.44 66.415" fill="black"/>
<path d="M192.955 73.4451H185.925V80.4751H192.955V73.4451Z" fill="black"/>
<path d="M192.955 80.4751H185.925V87.5051H192.955V80.4751Z" fill="black"/>
<path d="M192.955 87.5049H185.925V94.5349H192.955V87.5049Z" fill="black"/>
<path d="M192.955 94.5349H185.925V101.565H192.955V94.5349Z" fill="black"/>
<path d="M185.925 129.685V136.715H192.955V133.2C192.955 132.268 192.585 131.374 191.926 130.715C191.266 130.055 190.372 129.685 189.44 129.685" fill="black"/>
<path d="M192.955 136.715H185.925V140.23C185.925 141.162 186.295 142.056 186.955 142.716C187.614 143.375 188.508 143.745 189.44 143.745C190.372 143.745 191.266 143.375 191.926 142.716C192.585 142.056 192.955 141.162 192.955 140.23" fill="black"/>
<path d="M192.955 171.865H185.925V178.895H192.955V171.865Z" fill="black"/>
<path d="M192.955 199.985H185.925V207.015H192.955V199.985Z" fill="black"/>
<path d="M199.985 73.4451H192.955V80.4751H199.985V73.4451Z" fill="black"/>
<path d="M199.985 94.5349H192.955V101.565H199.985V94.5349Z" fill="black"/>
<path d="M196.47 122.655C198.411 122.655 199.985 121.081 199.985 119.14C199.985 117.199 198.411 115.625 196.47 115.625C194.529 115.625 192.955 117.199 192.955 119.14C192.955 121.081 194.529 122.655 196.47 122.655Z" fill="black"/>
<path d="M192.955 157.805H199.985V150.775H196.47C195.538 150.775 194.644 151.145 193.985 151.804C193.325 152.464 192.955 153.358 192.955 154.29" fill="black"/>
<path d="M199.985 157.805H192.955V161.32C192.955 162.252 193.325 163.146 193.985 163.805C194.644 164.465 195.538 164.835 196.47 164.835C197.402 164.835 198.296 164.465 198.956 163.805C199.615 163.146 199.985 162.252 199.985 161.32" fill="black"/>
<path d="M192.955 171.865V178.895H199.985V175.38C199.985 174.448 199.615 173.554 198.956 172.895C198.296 172.235 197.402 171.865 196.47 171.865" fill="black"/>
<path d="M199.985 185.925V178.895H192.955V182.41C192.955 183.342 193.325 184.236 193.985 184.896C194.644 185.555 195.538 185.925 196.47 185.925" fill="black"/>
<path d="M192.955 199.985V207.015H199.985V203.5C199.985 202.568 199.615 201.674 198.956 201.015C198.296 200.355 197.402 199.985 196.47 199.985" fill="black"/>
<path d="M199.985 214.045V207.015H192.955V210.53C192.955 211.462 193.325 212.356 193.985 213.015C194.644 213.675 195.538 214.045 196.47 214.045" fill="black"/>
<path d="M199.985 73.4451H207.015V69.9301C207.015 68.9978 206.645 68.1038 205.986 67.4446C205.326 66.7854 204.432 66.4151 203.5 66.4151C202.568 66.4151 201.674 66.7854 201.015 67.4446C200.355 68.1038 199.985 68.9978 199.985 69.9301" fill="black"/>
<path d="M207.015 73.4451H199.985V80.4751H207.015V73.4451Z" fill="black"/>
<path d="M199.985 94.5349H207.015V87.5049H203.5C202.568 87.5049 201.674 87.8752 201.015 88.5344C200.355 89.1936 199.985 90.0877 199.985 91.0199" fill="black"/>
<path d="M207.015 94.5349H199.985V101.565H203.5C204.432 101.565 205.326 101.195 205.985 100.535C206.645 99.8762 207.015 98.9821 207.015 98.0499" fill="black"/>
<path d="M207.015 129.685V122.655H203.5C202.568 122.655 201.674 123.025 201.014 123.685C200.355 124.344 199.985 125.238 199.985 126.17C199.985 127.102 200.355 127.996 201.014 128.656C201.674 129.315 202.568 129.685 203.5 129.685" fill="black"/>
<path d="M199.985 150.775H207.015V143.745H203.5C202.568 143.745 201.674 144.115 201.015 144.774C200.355 145.434 199.985 146.328 199.985 147.26" fill="black"/>
<path d="M207.015 150.775H199.985V157.805H207.015V150.775Z" fill="black"/>
<path d="M207.015 178.895H199.985V185.925H207.015V178.895Z" fill="black"/>
<path d="M203.5 199.985C205.441 199.985 207.015 198.411 207.015 196.47C207.015 194.529 205.441 192.955 203.5 192.955C201.559 192.955 199.985 194.529 199.985 196.47C199.985 198.411 201.559 199.985 203.5 199.985Z" fill="black"/>
<path d="M199.985 207.015V214.045H203.5C204.432 214.045 205.326 213.675 205.986 213.015C206.645 212.356 207.015 211.462 207.015 210.53C207.015 209.598 206.645 208.704 205.986 208.044C205.326 207.385 204.432 207.015 203.5 207.015" fill="black"/>
<path d="M207.015 73.4451V80.4751H214.045V76.9601C214.045 76.0278 213.675 75.1338 213.015 74.4746C212.356 73.8154 211.462 73.4451 210.53 73.4451" fill="black"/>
<path d="M214.045 80.4751H207.015V87.5051H214.045V80.4751Z" fill="black"/>
<path d="M214.045 87.5049H207.015V94.5349H210.53C211.462 94.5349 212.356 94.1645 213.015 93.5054C213.675 92.8462 214.045 91.9521 214.045 91.0199" fill="black"/>
<path d="M207.015 115.625H214.045V112.11C214.045 111.178 213.675 110.284 213.015 109.625C212.356 108.965 211.462 108.595 210.53 108.595C209.598 108.595 208.704 108.965 208.044 109.625C207.385 110.284 207.015 111.178 207.015 112.11" fill="black"/>
<path d="M214.045 115.625H207.015V122.655H214.045V115.625Z" fill="black"/>
<path d="M214.045 122.655H207.015V129.685H210.53C211.462 129.685 212.356 129.315 213.015 128.656C213.675 127.996 214.045 127.102 214.045 126.17" fill="black"/>
<path d="M207.015 143.745V150.775H214.045V147.26C214.045 146.328 213.675 145.434 213.015 144.775C212.356 144.115 211.462 143.745 210.53 143.745" fill="black"/>
<path d="M214.045 150.775H207.015V157.805H210.53C211.462 157.805 212.356 157.435 213.015 156.775C213.675 156.116 214.045 155.222 214.045 154.29" fill="black"/>
<path d="M207.015 171.865H214.045V168.35C214.045 167.418 213.675 166.524 213.015 165.865C212.356 165.205 211.462 164.835 210.53 164.835C209.598 164.835 208.704 165.205 208.044 165.865C207.385 166.524 207.015 167.418 207.015 168.35" fill="black"/>
<path d="M214.045 171.865H207.015V178.895H214.045V171.865Z" fill="black"/>
<path d="M214.045 178.895H207.015V185.925H210.53C211.462 185.925 212.356 185.555 213.015 184.895C213.675 184.236 214.045 183.342 214.045 182.41" fill="black"/>
<path d="M10.175 27.75V41.81C10.175 46.4712 12.0267 50.9415 15.3226 54.2375C18.6186 57.5334 23.0889 59.385 27.75 59.385H41.81C46.4712 59.385 50.9415 57.5334 54.2375 54.2375C57.5334 50.9415 59.385 46.4712 59.385 41.81V27.75C59.385 23.0889 57.5334 18.6186 54.2375 15.3226C50.9415 12.0267 46.4712 10.175 41.81 10.175H27.75C23.0889 10.175 18.6186 12.0267 15.3226 15.3226C12.0267 18.6186 10.175 23.0889 10.175 27.75ZM27.75 17.205H41.81C44.6068 17.205 47.2889 18.316 49.2665 20.2936C51.2441 22.2712 52.355 24.9533 52.355 27.75V41.81C52.355 44.6068 51.2441 47.2889 49.2665 49.2665C47.2889 51.2441 44.6068 52.355 41.81 52.355H27.75C24.9533 52.355 22.2712 51.2441 20.2936 49.2665C18.316 47.2889 17.205 44.6068 17.205 41.81V27.75C17.205 24.9533 18.316 22.2712 20.2936 20.2936C22.2712 18.316 24.9533 17.205 27.75 17.205Z" fill="black"/>
<path d="M40.0526 24.2351H29.5076C26.5957 24.2351 24.2351 26.5957 24.2351 29.5076V40.0526C24.2351 42.9645 26.5957 45.3251 29.5076 45.3251H40.0526C42.9645 45.3251 45.3251 42.9645 45.3251 40.0526V29.5076C45.3251 26.5957 42.9645 24.2351 40.0526 24.2351Z" fill="black"/>
<path d="M196.47 10.175H182.41C177.749 10.175 173.278 12.0267 169.983 15.3226C166.687 18.6186 164.835 23.0889 164.835 27.75V41.81C164.835 46.4712 166.687 50.9415 169.983 54.2375C173.278 57.5334 177.749 59.385 182.41 59.385H196.47C201.131 59.385 205.601 57.5334 208.897 54.2375C212.193 50.9415 214.045 46.4712 214.045 41.81V27.75C214.045 23.0889 212.193 18.6186 208.897 15.3226C205.601 12.0267 201.131 10.175 196.47 10.175ZM207.015 27.75V41.81C207.015 44.6068 205.904 47.2889 203.926 49.2665C201.949 51.2441 199.267 52.355 196.47 52.355H182.41C179.613 52.355 176.931 51.2441 174.953 49.2665C172.976 47.2889 171.865 44.6068 171.865 41.81V27.75C171.865 24.9533 172.976 22.2712 174.953 20.2936C176.931 18.316 179.613 17.205 182.41 17.205H196.47C199.267 17.205 201.949 18.316 203.926 20.2936C205.904 22.2712 207.015 24.9533 207.015 27.75Z" fill="black"/>
<path d="M199.985 40.0526V29.5076C199.985 26.5957 197.625 24.2351 194.713 24.2351H184.168C181.256 24.2351 178.895 26.5957 178.895 29.5076V40.0526C178.895 42.9645 181.256 45.3251 184.168 45.3251H194.713C197.625 45.3251 199.985 42.9645 199.985 40.0526Z" fill="black"/>
<path d="M27.75 214.045H41.81C46.4712 214.045 50.9415 212.193 54.2375 208.897C57.5334 205.601 59.385 201.131 59.385 196.47V182.41C59.385 177.749 57.5334 173.278 54.2375 169.983C50.9415 166.687 46.4712 164.835 41.81 164.835H27.75C23.0889 164.835 18.6186 166.687 15.3226 169.983C12.0267 173.278 10.175 177.749 10.175 182.41V196.47C10.175 201.131 12.0267 205.601 15.3226 208.897C18.6186 212.193 23.0889 214.045 27.75 214.045ZM17.205 196.47V182.41C17.205 179.613 18.316 176.931 20.2936 174.953C22.2712 172.976 24.9533 171.865 27.75 171.865H41.81C44.6068 171.865 47.2889 172.976 49.2665 174.953C51.2441 176.931 52.355 179.613 52.355 182.41V196.47C52.355 199.267 51.2441 201.949 49.2665 203.926C47.2889 205.904 44.6068 207.015 41.81 207.015H27.75C24.9533 207.015 22.2712 205.904 20.2936 203.926C18.316 201.949 17.205 199.267 17.205 196.47Z" fill="black"/>
<path d="M24.2351 184.168V194.713C24.2351 197.625 26.5957 199.985 29.5076 199.985H40.0526C42.9645 199.985 45.3251 197.625 45.3251 194.713V184.168C45.3251 181.256 42.9645 178.895 40.0526 178.895H29.5076C26.5957 178.895 24.2351 181.256 24.2351 184.168Z" fill="black"/>
</svg>
