<svg width="222" height="222" viewBox="0 0 222 222" fill="none" xmlns="http://www.w3.org/2000/svg">
<g clip-path="url(#clip0_738_2843)">
<path d="M222 0H-0.000488281V222H222V0Z" fill="#FAFAFA"/>
<path d="M74.1994 20.3829H67.2703V16.9184C67.2703 14.9552 68.7716 13.4539 70.7348 13.4539H74.1994V20.3829Z" fill="#09090B"/>
<path d="M80.9249 20.3829H73.9958V13.4539H77.4604C79.4236 13.4539 80.9249 14.9552 80.9249 16.9184V20.3829Z" fill="#09090B"/>
<path d="M121.292 20.3829H114.363V16.9184C114.363 14.9552 115.864 13.4539 117.827 13.4539C119.791 13.4539 121.292 14.9552 121.292 16.9184V20.3829Z" fill="#09090B"/>
<path d="M134.746 20.3829H127.817V16.9184C127.817 14.9552 129.318 13.4539 131.281 13.4539H134.746V20.3829Z" fill="#09090B"/>
<path d="M138.008 20.3829H134.543V13.4539H138.008C139.971 13.4539 141.472 14.9552 141.472 16.9184C141.472 18.8816 139.971 20.3829 138.008 20.3829Z" fill="#09090B"/>
<path d="M74.1994 20.1826H67.2703V27.1117H74.1994V20.1826Z" fill="#09090B"/>
<path d="M80.9249 20.1826H73.9958V27.1117H80.9249V20.1826Z" fill="#09090B"/>
<path d="M87.6535 20.1826H80.7244V27.1117H87.6535V20.1826Z" fill="#09090B"/>
<path d="M94.3825 27.1117H87.4534V20.1826H90.9179C92.8812 20.1826 94.3825 21.6839 94.3825 23.6472V27.1117Z" fill="#09090B"/>
<path d="M114.563 27.1117H107.634V23.6472C107.634 21.6839 109.135 20.1826 111.098 20.1826H114.563V27.1117Z" fill="#09090B"/>
<path d="M117.827 27.1117H114.363V20.1826H121.292V23.6472C121.292 25.6104 119.791 27.1117 117.827 27.1117Z" fill="#09090B"/>
<path d="M131.281 27.1117C129.318 27.1117 127.817 25.6104 127.817 23.6472V20.1826H134.746V23.6472C134.746 25.6104 133.245 27.1117 131.281 27.1117Z" fill="#09090B"/>
<path d="M151.464 27.1117C153.377 27.1117 154.928 25.5606 154.928 23.6472C154.928 21.7337 153.377 20.1826 151.464 20.1826C149.55 20.1826 147.999 21.7337 147.999 23.6472C147.999 25.5606 149.55 27.1117 151.464 27.1117Z" fill="#09090B"/>
<path d="M70.7348 33.8385C68.7716 33.8385 67.2703 32.3372 67.2703 30.374V26.9094H74.1994V30.374C74.1994 32.3372 72.6981 33.8385 70.7348 33.8385Z" fill="#09090B"/>
<path d="M94.3825 26.9094H87.4534V33.8385H94.3825V26.9094Z" fill="#09090B"/>
<path d="M107.837 33.8385H100.908V30.374C100.908 28.4107 102.409 26.9094 104.372 26.9094H107.837V33.8385Z" fill="#09090B"/>
<path d="M111.098 33.8385H107.634V26.9094H114.563V30.374C114.563 32.3372 113.062 33.8385 111.098 33.8385Z" fill="#09090B"/>
<path d="M128.018 33.8385H121.089V30.374C121.089 28.4107 122.59 26.9094 124.553 26.9094C126.517 26.9094 128.018 28.4107 128.018 30.374V33.8385Z" fill="#09090B"/>
<path d="M138.008 33.8385C139.921 33.8385 141.472 32.2874 141.472 30.374C141.472 28.4606 139.921 26.9094 138.008 26.9094C136.094 26.9094 134.543 28.4606 134.543 30.374C134.543 32.2874 136.094 33.8385 138.008 33.8385Z" fill="#09090B"/>
<path d="M87.6535 40.5656H80.7244V37.101C80.7244 35.1378 82.2257 33.6365 84.1889 33.6365H87.6535V40.5656Z" fill="#09090B"/>
<path d="M94.3825 33.6365H87.4534V40.5656H94.3825V33.6365Z" fill="#09090B"/>
<path d="M104.372 40.5656C102.409 40.5656 100.908 39.0643 100.908 37.101V33.6365H107.837V37.101C107.837 39.0643 106.336 40.5656 104.372 40.5656Z" fill="#09090B"/>
<path d="M121.292 40.5656H117.827C115.864 40.5656 114.363 39.0643 114.363 37.101C114.363 35.1378 115.864 33.6365 117.827 33.6365H121.292V40.5656Z" fill="#09090B"/>
<path d="M128.018 33.6365H121.089V40.5656H128.018V33.6365Z" fill="#09090B"/>
<path d="M134.746 40.5656H127.817V33.6365H131.281C133.245 33.6365 134.746 35.1378 134.746 37.101V40.5656Z" fill="#09090B"/>
<path d="M80.9249 47.2924H73.9958V43.8278C73.9958 41.8646 75.4972 40.3633 77.4604 40.3633H80.9249V47.2924Z" fill="#09090B"/>
<path d="M87.6535 40.3633H80.7244V47.2924H87.6535V40.3633Z" fill="#09090B"/>
<path d="M90.9179 47.2924H87.4534V40.3633H94.3825V43.8278C94.3825 45.7911 92.8812 47.2924 90.9179 47.2924Z" fill="#09090B"/>
<path d="M111.098 47.2924C113.012 47.2924 114.563 45.7412 114.563 43.8278C114.563 41.9144 113.012 40.3633 111.098 40.3633C109.185 40.3633 107.634 41.9144 107.634 43.8278C107.634 45.7412 109.185 47.2924 111.098 47.2924Z" fill="#09090B"/>
<path d="M134.746 40.3633H127.817V47.2924H134.746V40.3633Z" fill="#09090B"/>
<path d="M141.472 40.3633H134.543V47.2924H141.472V40.3633Z" fill="#09090B"/>
<path d="M144.737 47.2924H141.272V40.3633H144.737C146.7 40.3633 148.201 41.8646 148.201 43.8278C148.201 45.7911 146.7 47.2924 144.737 47.2924Z" fill="#09090B"/>
<path d="M74.1994 54.0204H67.2703V50.5559C67.2703 48.5926 68.7716 47.0913 70.7348 47.0913H74.1994V54.0204Z" fill="#09090B"/>
<path d="M77.4604 54.0204H73.9958V47.0913H80.9249V50.5559C80.9249 52.5191 79.4236 54.0204 77.4604 54.0204Z" fill="#09090B"/>
<path d="M128.018 54.0204H121.089V50.5559C121.089 48.5926 122.59 47.0913 124.553 47.0913H128.018V54.0204Z" fill="#09090B"/>
<path d="M131.281 54.0204H127.817V47.0913H134.746V50.5559C134.746 52.5191 133.245 54.0204 131.281 54.0204Z" fill="#09090B"/>
<path d="M74.1994 53.8186H67.2703V60.7477H74.1994V53.8186Z" fill="#09090B"/>
<path d="M87.6535 60.7477H80.7244V57.2831C80.7244 55.3199 82.2257 53.8186 84.1889 53.8186C86.1522 53.8186 87.6535 55.3199 87.6535 57.2831V60.7477Z" fill="#09090B"/>
<path d="M97.644 60.7477C99.5574 60.7477 101.109 59.1966 101.109 57.2831C101.109 55.3697 99.5574 53.8186 97.644 53.8186C95.7306 53.8186 94.1794 55.3697 94.1794 57.2831C94.1794 59.1966 95.7306 60.7477 97.644 60.7477Z" fill="#09090B"/>
<path d="M114.563 60.7477H107.634V57.2831C107.634 55.3199 109.135 53.8186 111.098 53.8186C113.062 53.8186 114.563 55.3199 114.563 57.2831V60.7477Z" fill="#09090B"/>
<path d="M128.018 53.8186H121.089V60.7477H128.018V53.8186Z" fill="#09090B"/>
<path d="M141.472 60.7477H134.543V57.2831C134.543 55.3199 136.044 53.8186 138.008 53.8186C139.971 53.8186 141.472 55.3199 141.472 57.2831V60.7477Z" fill="#09090B"/>
<path d="M151.464 60.7477C153.377 60.7477 154.928 59.1966 154.928 57.2831C154.928 55.3697 153.377 53.8186 151.464 53.8186C149.55 53.8186 147.999 55.3697 147.999 57.2831C147.999 59.1966 149.55 60.7477 151.464 60.7477Z" fill="#09090B"/>
<path d="M74.1994 60.5464H67.2703V67.4755H74.1994V60.5464Z" fill="#09090B"/>
<path d="M80.9249 60.5464H73.9958V67.4755H80.9249V60.5464Z" fill="#09090B"/>
<path d="M87.6535 60.5464H80.7244V67.4755H87.6535V60.5464Z" fill="#09090B"/>
<path d="M111.098 67.4755C109.135 67.4755 107.634 65.9742 107.634 64.0109V60.5464H114.563V64.0109C114.563 65.9742 113.062 67.4755 111.098 67.4755Z" fill="#09090B"/>
<path d="M128.018 60.5464H121.089V67.4755H128.018V60.5464Z" fill="#09090B"/>
<path d="M134.746 60.5464H127.817V67.4755H134.746V60.5464Z" fill="#09090B"/>
<path d="M141.472 60.5464H134.543V67.4755H141.472V60.5464Z" fill="#09090B"/>
<path d="M144.737 67.4755H141.272V60.5464H144.737C146.7 60.5464 148.201 62.0477 148.201 64.0109C148.201 65.9742 146.7 67.4755 144.737 67.4755Z" fill="#09090B"/>
<path d="M33.8349 74.2016H30.3703C28.4071 74.2016 26.9058 72.7002 26.9058 70.737C26.9058 68.7738 28.4071 67.2725 30.3703 67.2725H33.8349V74.2016Z" fill="#09090B"/>
<path d="M40.5646 67.2725H33.6355V74.2016H40.5646V67.2725Z" fill="#09090B"/>
<path d="M43.8266 74.2016H40.3621V67.2725H43.8266C45.7898 67.2725 47.2912 68.7738 47.2912 70.737C47.2912 72.7002 45.7898 74.2016 43.8266 74.2016Z" fill="#09090B"/>
<path d="M57.2795 74.2016C59.1929 74.2016 60.744 72.6504 60.744 70.737C60.744 68.8236 59.1929 67.2725 57.2795 67.2725C55.3661 67.2725 53.8149 68.8236 53.8149 70.737C53.8149 72.6504 55.3661 74.2016 57.2795 74.2016Z" fill="#09090B"/>
<path d="M70.7348 74.2016C68.7716 74.2016 67.2703 72.7002 67.2703 70.737V67.2725H74.1994V70.737C74.1994 72.7002 72.6981 74.2016 70.7348 74.2016Z" fill="#09090B"/>
<path d="M87.6535 74.2016H84.1889C82.2257 74.2016 80.7244 72.7002 80.7244 70.737V67.2725H87.6535V74.2016Z" fill="#09090B"/>
<path d="M94.3825 67.2725H87.4534V74.2016H94.3825V67.2725Z" fill="#09090B"/>
<path d="M101.109 67.2725H94.1794V74.2016H101.109V67.2725Z" fill="#09090B"/>
<path d="M104.372 74.2016H100.908V67.2725H104.372C106.336 67.2725 107.837 68.7738 107.837 70.737C107.837 72.7002 106.336 74.2016 104.372 74.2016Z" fill="#09090B"/>
<path d="M124.553 74.2016C122.59 74.2016 121.089 72.7002 121.089 70.737V67.2725H128.018V70.737C128.018 72.7002 126.517 74.2016 124.553 74.2016Z" fill="#09090B"/>
<path d="M161.655 74.2016H158.191C156.228 74.2016 154.726 72.7002 154.726 70.737C154.726 68.7738 156.228 67.2725 158.191 67.2725H161.655V74.2016Z" fill="#09090B"/>
<path d="M168.381 67.2725H161.452V74.2016H168.381V67.2725Z" fill="#09090B"/>
<path d="M175.11 74.2016H168.181V67.2725H171.646C173.609 67.2725 175.11 68.7738 175.11 70.737V74.2016Z" fill="#09090B"/>
<path d="M195.289 74.2016H191.825C189.862 74.2016 188.36 72.7002 188.36 70.737C188.36 68.7738 189.862 67.2725 191.825 67.2725H195.289V74.2016Z" fill="#09090B"/>
<path d="M202.02 67.2725H195.091V74.2016H202.02V67.2725Z" fill="#09090B"/>
<path d="M208.746 74.2016H201.817V67.2725H205.281C207.244 67.2725 208.746 68.7738 208.746 70.737V74.2016Z" fill="#09090B"/>
<path d="M20.3817 80.9303H13.4526V77.4658C13.4526 75.5025 14.9539 74.0012 16.9172 74.0012C18.8804 74.0012 20.3817 75.5025 20.3817 77.4658V80.9303Z" fill="#09090B"/>
<path d="M40.5646 74.0012H33.6355V80.9303H40.5646V74.0012Z" fill="#09090B"/>
<path d="M54.018 80.9303H47.0889V77.4658C47.0889 75.5025 48.5902 74.0012 50.5534 74.0012C52.5167 74.0012 54.018 75.5025 54.018 77.4658V80.9303Z" fill="#09090B"/>
<path d="M64.0087 80.9303C65.9222 80.9303 67.4733 79.3792 67.4733 77.4658C67.4733 75.5524 65.9222 74.0012 64.0087 74.0012C62.0953 74.0012 60.5442 75.5524 60.5442 77.4658C60.5442 79.3792 62.0953 80.9303 64.0087 80.9303Z" fill="#09090B"/>
<path d="M94.3825 80.9303H90.9179C88.9547 80.9303 87.4534 79.429 87.4534 77.4658V74.0012H94.3825V80.9303Z" fill="#09090B"/>
<path d="M97.644 80.9303H94.1794V74.0012H101.109V77.4658C101.109 79.429 99.6072 80.9303 97.644 80.9303Z" fill="#09090B"/>
<path d="M114.563 80.9303H111.098C109.135 80.9303 107.634 79.429 107.634 77.4658C107.634 75.5025 109.135 74.0012 111.098 74.0012H114.563V80.9303Z" fill="#09090B"/>
<path d="M121.292 80.9303H114.363V74.0012H117.827C119.791 74.0012 121.292 75.5025 121.292 77.4658V80.9303Z" fill="#09090B"/>
<path d="M141.472 80.9303H134.543V77.4658C134.543 75.5025 136.044 74.0012 138.008 74.0012H141.472V80.9303Z" fill="#09090B"/>
<path d="M148.201 74.0012H141.272V80.9303H148.201V74.0012Z" fill="#09090B"/>
<path d="M154.928 80.9303H147.999V74.0012H151.464C153.427 74.0012 154.928 75.5025 154.928 77.4658V80.9303Z" fill="#09090B"/>
<path d="M175.11 80.9303H171.646C169.683 80.9303 168.181 79.429 168.181 77.4658V74.0012H175.11V80.9303Z" fill="#09090B"/>
<path d="M181.837 74.0012H174.907V80.9303H181.837V74.0012Z" fill="#09090B"/>
<path d="M185.099 80.9303H181.634V74.0012H185.099C187.062 74.0012 188.563 75.5025 188.563 77.4658C188.563 79.429 187.062 80.9303 185.099 80.9303Z" fill="#09090B"/>
<path d="M205.281 80.9303C203.318 80.9303 201.817 79.429 201.817 77.4658V74.0012H208.746V77.4658C208.746 79.429 207.244 80.9303 205.281 80.9303Z" fill="#09090B"/>
<path d="M20.3817 87.6571H16.9172C14.9539 87.6571 13.4526 86.1558 13.4526 84.1926V80.728H20.3817V87.6571Z" fill="#09090B"/>
<path d="M23.6442 87.6571H20.1797V80.728H23.6442C25.6075 80.728 27.1088 82.2293 27.1088 84.1926C27.1088 86.1558 25.6075 87.6571 23.6442 87.6571Z" fill="#09090B"/>
<path d="M40.5646 80.728H33.6355V87.6571H40.5646V80.728Z" fill="#09090B"/>
<path d="M54.018 87.6571H50.5534C48.5902 87.6571 47.0889 86.1558 47.0889 84.1926V80.728H54.018V87.6571Z" fill="#09090B"/>
<path d="M57.2795 87.6571H53.8149V80.728H57.2795C59.2427 80.728 60.744 82.2293 60.744 84.1926C60.744 86.1558 59.2427 87.6571 57.2795 87.6571Z" fill="#09090B"/>
<path d="M74.1994 87.6571H70.7348C68.7716 87.6571 67.2703 86.1558 67.2703 84.1926C67.2703 82.2293 68.7716 80.728 70.7348 80.728H74.1994V87.6571Z" fill="#09090B"/>
<path d="M80.9249 80.728H73.9958V87.6571H80.9249V80.728Z" fill="#09090B"/>
<path d="M87.6535 87.6571H80.7244V80.728H84.1889C86.1522 80.728 87.6535 82.2293 87.6535 84.1926V87.6571Z" fill="#09090B"/>
<path d="M121.292 87.6571H117.827C115.864 87.6571 114.363 86.1558 114.363 84.1926V80.728H121.292V87.6571Z" fill="#09090B"/>
<path d="M128.018 80.728H121.089V87.6571H128.018V80.728Z" fill="#09090B"/>
<path d="M134.746 80.728H127.817V87.6571H134.746V80.728Z" fill="#09090B"/>
<path d="M141.472 80.728H134.543V87.6571H141.472V80.728Z" fill="#09090B"/>
<path d="M154.928 87.6571H151.464C149.501 87.6571 147.999 86.1558 147.999 84.1926V80.728H154.928V87.6571Z" fill="#09090B"/>
<path d="M161.655 80.728H154.726V87.6571H161.655V80.728Z" fill="#09090B"/>
<path d="M168.381 87.6571H161.452V80.728H164.917C166.88 80.728 168.381 82.2293 168.381 84.1926V87.6571Z" fill="#09090B"/>
<path d="M181.837 80.728H174.907V87.6571H181.837V80.728Z" fill="#09090B"/>
<path d="M40.5646 87.4558H33.6355V94.3849H40.5646V87.4558Z" fill="#09090B"/>
<path d="M47.2912 94.3849H40.3621V87.4558H43.8266C45.7898 87.4558 47.2912 88.9571 47.2912 90.9204V94.3849Z" fill="#09090B"/>
<path d="M67.4733 94.3849H60.5442V90.9204C60.5442 88.9571 62.0455 87.4558 64.0087 87.4558C65.972 87.4558 67.4733 88.9571 67.4733 90.9204V94.3849Z" fill="#09090B"/>
<path d="M80.9249 94.3849H77.4604C75.4972 94.3849 73.9958 92.8836 73.9958 90.9204V87.4558H80.9249V94.3849Z" fill="#09090B"/>
<path d="M87.6535 87.4558H80.7244V94.3849H87.6535V87.4558Z" fill="#09090B"/>
<path d="M94.3825 87.4558H87.4534V94.3849H94.3825V87.4558Z" fill="#09090B"/>
<path d="M101.109 87.4558H94.1794V94.3849H101.109V87.4558Z" fill="#09090B"/>
<path d="M104.372 94.3849H100.908V87.4558H104.372C106.336 87.4558 107.837 88.9571 107.837 90.9204C107.837 92.8836 106.336 94.3849 104.372 94.3849Z" fill="#09090B"/>
<path d="M128.018 94.3849H124.553C122.59 94.3849 121.089 92.8836 121.089 90.9204V87.4558H128.018V94.3849Z" fill="#09090B"/>
<path d="M134.746 87.4558H127.817V94.3849H134.746V87.4558Z" fill="#09090B"/>
<path d="M141.472 87.4558H134.543V94.3849H141.472V87.4558Z" fill="#09090B"/>
<path d="M161.655 87.4558H154.726V94.3849H161.655V87.4558Z" fill="#09090B"/>
<path d="M168.381 87.4558H161.452V94.3849H168.381V87.4558Z" fill="#09090B"/>
<path d="M175.11 87.4558H168.181V94.3849H175.11V87.4558Z" fill="#09090B"/>
<path d="M181.837 87.4558H174.907V94.3849H181.837V87.4558Z" fill="#09090B"/>
<path d="M185.099 94.3849H181.634V87.4558H185.099C187.062 87.4558 188.563 88.9571 188.563 90.9204C188.563 92.8836 187.062 94.3849 185.099 94.3849Z" fill="#09090B"/>
<path d="M202.02 94.3849H195.091V90.9204C195.091 88.9571 196.592 87.4558 198.555 87.4558C200.518 87.4558 202.02 88.9571 202.02 90.9204V94.3849Z" fill="#09090B"/>
<path d="M27.1088 101.111H20.1797V97.6464C20.1797 95.6832 21.681 94.1819 23.6442 94.1819C25.6075 94.1819 27.1088 95.6832 27.1088 97.6464V101.111Z" fill="#09090B"/>
<path d="M40.5646 94.1819H33.6355V101.111H40.5646V94.1819Z" fill="#09090B"/>
<path d="M47.2912 94.1819H40.3621V101.111H47.2912V94.1819Z" fill="#09090B"/>
<path d="M54.018 94.1819H47.0889V101.111H54.018V94.1819Z" fill="#09090B"/>
<path d="M60.744 94.1819H53.8149V101.111H60.744V94.1819Z" fill="#09090B"/>
<path d="M67.4733 94.1819H60.5442V101.111H67.4733V94.1819Z" fill="#09090B"/>
<path d="M114.563 101.111H107.634V97.6464C107.634 95.6832 109.135 94.1819 111.098 94.1819H114.563V101.111Z" fill="#09090B"/>
<path d="M121.292 101.111H114.363V94.1819H117.827C119.791 94.1819 121.292 95.6832 121.292 97.6464V101.111Z" fill="#09090B"/>
<path d="M141.472 94.1819H134.543V101.111H141.472V94.1819Z" fill="#09090B"/>
<path d="M148.201 94.1819H141.272V101.111H148.201V94.1819Z" fill="#09090B"/>
<path d="M154.928 94.1819H147.999V101.111H154.928V94.1819Z" fill="#09090B"/>
<path d="M161.655 94.1819H154.726V101.111H161.655V94.1819Z" fill="#09090B"/>
<path d="M171.646 101.111C169.683 101.111 168.181 99.6097 168.181 97.6464V94.1819H175.11V97.6464C175.11 99.6097 173.609 101.111 171.646 101.111Z" fill="#09090B"/>
<path d="M195.289 101.111H191.825C189.862 101.111 188.36 99.6097 188.36 97.6464C188.36 95.6832 189.862 94.1819 191.825 94.1819H195.289V101.111Z" fill="#09090B"/>
<path d="M202.02 94.1819H195.091V101.111H202.02V94.1819Z" fill="#09090B"/>
<path d="M208.746 101.111H201.817V94.1819H205.281C207.244 94.1819 208.746 95.6832 208.746 97.6464V101.111Z" fill="#09090B"/>
<path d="M27.1088 100.91H20.1797V107.839H27.1088V100.91Z" fill="#09090B"/>
<path d="M33.8349 100.91H26.9058V107.839H33.8349V100.91Z" fill="#09090B"/>
<path d="M40.5646 100.91H33.6355V107.839H40.5646V100.91Z" fill="#09090B"/>
<path d="M47.2912 100.91H40.3621V107.839H47.2912V100.91Z" fill="#09090B"/>
<path d="M50.5534 107.839H47.0889V100.91H54.018V104.374C54.018 106.338 52.5167 107.839 50.5534 107.839Z" fill="#09090B"/>
<path d="M67.4733 100.91H60.5442V107.839H67.4733V100.91Z" fill="#09090B"/>
<path d="M87.6535 107.839H80.7244V104.374C80.7244 102.411 82.2257 100.91 84.1889 100.91C86.1522 100.91 87.6535 102.411 87.6535 104.374V107.839Z" fill="#09090B"/>
<path d="M114.563 100.91H107.634V107.839H114.563V100.91Z" fill="#09090B"/>
<path d="M117.827 107.839H114.363V100.91H121.292V104.374C121.292 106.338 119.791 107.839 117.827 107.839Z" fill="#09090B"/>
<path d="M141.472 100.91H134.543V107.839H141.472V100.91Z" fill="#09090B"/>
<path d="M148.201 100.91H141.272V107.839H148.201V100.91Z" fill="#09090B"/>
<path d="M154.928 100.91H147.999V107.839H154.928V100.91Z" fill="#09090B"/>
<path d="M161.655 100.91H154.726V107.839H161.655V100.91Z" fill="#09090B"/>
<path d="M164.917 107.839H161.452V100.91H164.917C166.88 100.91 168.381 102.411 168.381 104.374C168.381 106.338 166.88 107.839 164.917 107.839Z" fill="#09090B"/>
<path d="M181.837 107.839H178.372C176.409 107.839 174.907 106.338 174.907 104.374C174.907 102.411 176.409 100.91 178.372 100.91H181.837V107.839Z" fill="#09090B"/>
<path d="M185.099 107.839H181.634V100.91H185.099C187.062 100.91 188.563 102.411 188.563 104.374C188.563 106.338 187.062 107.839 185.099 107.839Z" fill="#09090B"/>
<path d="M202.02 107.839H198.555C196.592 107.839 195.091 106.338 195.091 104.374V100.91H202.02V107.839Z" fill="#09090B"/>
<path d="M205.281 107.839H201.817V100.91H208.746V104.374C208.746 106.338 207.244 107.839 205.281 107.839Z" fill="#09090B"/>
<path d="M23.6442 114.566C21.681 114.566 20.1797 113.065 20.1797 111.102V107.637H27.1088V111.102C27.1088 113.065 25.6075 114.566 23.6442 114.566Z" fill="#09090B"/>
<path d="M47.2912 107.637H40.3621V114.566H47.2912V107.637Z" fill="#09090B"/>
<path d="M60.744 114.566H57.2795C55.3162 114.566 53.8149 113.065 53.8149 111.102C53.8149 109.139 55.3162 107.637 57.2795 107.637H60.744V114.566Z" fill="#09090B"/>
<path d="M64.0087 114.566H60.5442V107.637H67.4733V111.102C67.4733 113.065 65.972 114.566 64.0087 114.566Z" fill="#09090B"/>
<path d="M87.6535 107.637H80.7244V114.566H87.6535V107.637Z" fill="#09090B"/>
<path d="M94.3825 107.637H87.4534V114.566H94.3825V107.637Z" fill="#09090B"/>
<path d="M97.644 114.566H94.1794V107.637H97.644C99.6072 107.637 101.109 109.139 101.109 111.102C101.109 113.065 99.6072 114.566 97.644 114.566Z" fill="#09090B"/>
<path d="M114.563 107.637H107.634V114.566H114.563V107.637Z" fill="#09090B"/>
<path d="M128.018 114.566H121.089V111.102C121.089 109.139 122.59 107.637 124.553 107.637H128.018V114.566Z" fill="#09090B"/>
<path d="M134.746 107.637H127.817V114.566H134.746V107.637Z" fill="#09090B"/>
<path d="M141.472 107.637H134.543V114.566H141.472V107.637Z" fill="#09090B"/>
<path d="M151.464 114.566C149.501 114.566 147.999 113.065 147.999 111.102V107.637H154.928V111.102C154.928 113.065 153.427 114.566 151.464 114.566Z" fill="#09090B"/>
<path d="M171.646 114.566C173.559 114.566 175.11 113.015 175.11 111.102C175.11 109.188 173.559 107.637 171.646 107.637C169.733 107.637 168.181 109.188 168.181 111.102C168.181 113.015 169.733 114.566 171.646 114.566Z" fill="#09090B"/>
<path d="M30.3703 121.293C32.2837 121.293 33.8349 119.742 33.8349 117.829C33.8349 115.915 32.2837 114.364 30.3703 114.364C28.4569 114.364 26.9058 115.915 26.9058 117.829C26.9058 119.742 28.4569 121.293 30.3703 121.293Z" fill="#09090B"/>
<path d="M47.2912 121.293H43.8266C41.8634 121.293 40.3621 119.792 40.3621 117.829V114.364H47.2912V121.293Z" fill="#09090B"/>
<path d="M50.5534 121.293H47.0889V114.364H50.5534C52.5167 114.364 54.018 115.865 54.018 117.829C54.018 119.792 52.5167 121.293 50.5534 121.293Z" fill="#09090B"/>
<path d="M74.1994 121.293H67.2703V117.829C67.2703 115.865 68.7716 114.364 70.7348 114.364C72.6981 114.364 74.1994 115.865 74.1994 117.829V121.293Z" fill="#09090B"/>
<path d="M87.6535 114.364H80.7244V121.293H87.6535V114.364Z" fill="#09090B"/>
<path d="M114.563 114.364H107.634V121.293H114.563V114.364Z" fill="#09090B"/>
<path d="M121.292 114.364H114.363V121.293H121.292V114.364Z" fill="#09090B"/>
<path d="M124.553 121.293H121.089V114.364H128.018V117.829C128.018 119.792 126.517 121.293 124.553 121.293Z" fill="#09090B"/>
<path d="M141.472 114.364H134.543V121.293H141.472V114.364Z" fill="#09090B"/>
<path d="M181.837 121.293H178.372C176.409 121.293 174.907 119.792 174.907 117.829C174.907 115.865 176.409 114.364 178.372 114.364H181.837V121.293Z" fill="#09090B"/>
<path d="M188.563 121.293H181.634V114.364H185.099C187.062 114.364 188.563 115.865 188.563 117.829V121.293Z" fill="#09090B"/>
<path d="M208.746 121.293H201.817V117.829C201.817 115.865 203.318 114.364 205.281 114.364C207.244 114.364 208.746 115.865 208.746 117.829V121.293Z" fill="#09090B"/>
<path d="M23.6442 128.02C25.5576 128.02 27.1088 126.469 27.1088 124.556C27.1088 122.642 25.5576 121.091 23.6442 121.091C21.7308 121.091 20.1797 122.642 20.1797 124.556C20.1797 126.469 21.7308 128.02 23.6442 128.02Z" fill="#09090B"/>
<path d="M57.2795 128.02C59.1929 128.02 60.744 126.469 60.744 124.556C60.744 122.642 59.1929 121.091 57.2795 121.091C55.3661 121.091 53.8149 122.642 53.8149 124.556C53.8149 126.469 55.3661 128.02 57.2795 128.02Z" fill="#09090B"/>
<path d="M70.7348 128.02C68.7716 128.02 67.2703 126.519 67.2703 124.556V121.091H74.1994V124.556C74.1994 126.519 72.6981 128.02 70.7348 128.02Z" fill="#09090B"/>
<path d="M87.6535 121.091H80.7244V128.02H87.6535V121.091Z" fill="#09090B"/>
<path d="M101.109 128.02H94.1794V124.556C94.1794 122.593 95.6807 121.091 97.644 121.091C99.6072 121.091 101.109 122.593 101.109 124.556V128.02Z" fill="#09090B"/>
<path d="M111.098 128.02C109.135 128.02 107.634 126.519 107.634 124.556V121.091H114.563V124.556C114.563 126.519 113.062 128.02 111.098 128.02Z" fill="#09090B"/>
<path d="M134.746 128.02H127.817V124.556C127.817 122.593 129.318 121.091 131.281 121.091H134.746V128.02Z" fill="#09090B"/>
<path d="M138.008 128.02H134.543V121.091H141.472V124.556C141.472 126.519 139.971 128.02 138.008 128.02Z" fill="#09090B"/>
<path d="M154.928 128.02H147.999V124.556C147.999 122.593 149.501 121.091 151.464 121.091C153.427 121.091 154.928 122.593 154.928 124.556V128.02Z" fill="#09090B"/>
<path d="M188.563 121.091H181.634V128.02H188.563V121.091Z" fill="#09090B"/>
<path d="M191.825 128.02H188.36V121.091H191.825C193.788 121.091 195.289 122.593 195.289 124.556C195.289 126.519 193.788 128.02 191.825 128.02Z" fill="#09090B"/>
<path d="M208.746 121.091H201.817V128.02H208.746V121.091Z" fill="#09090B"/>
<path d="M20.3817 134.748H13.4526V131.284C13.4526 129.321 14.9539 127.819 16.9172 127.819C18.8804 127.819 20.3817 129.321 20.3817 131.284V134.748Z" fill="#09090B"/>
<path d="M47.2912 134.748H40.3621V131.284C40.3621 129.321 41.8634 127.819 43.8266 127.819C45.7898 127.819 47.2912 129.321 47.2912 131.284V134.748Z" fill="#09090B"/>
<path d="M87.6535 127.819H80.7244V134.748H87.6535V127.819Z" fill="#09090B"/>
<path d="M94.3825 127.819H87.4534V134.748H94.3825V127.819Z" fill="#09090B"/>
<path d="M101.109 127.819H94.1794V134.748H101.109V127.819Z" fill="#09090B"/>
<path d="M128.018 134.748H124.553C122.59 134.748 121.089 133.247 121.089 131.284C121.089 129.321 122.59 127.819 124.553 127.819H128.018V134.748Z" fill="#09090B"/>
<path d="M134.746 127.819H127.817V134.748H134.746V127.819Z" fill="#09090B"/>
<path d="M148.201 134.748H144.737C142.773 134.748 141.272 133.247 141.272 131.284C141.272 129.321 142.773 127.819 144.737 127.819H148.201V134.748Z" fill="#09090B"/>
<path d="M154.928 127.819H147.999V134.748H154.928V127.819Z" fill="#09090B"/>
<path d="M158.191 134.748H154.726V127.819H158.191C160.154 127.819 161.655 129.321 161.655 131.284C161.655 133.247 160.154 134.748 158.191 134.748Z" fill="#09090B"/>
<path d="M175.11 134.748H168.181V131.284C168.181 129.321 169.683 127.819 171.646 127.819H175.11V134.748Z" fill="#09090B"/>
<path d="M181.837 127.819H174.907V134.748H181.837V127.819Z" fill="#09090B"/>
<path d="M188.563 127.819H181.634V134.748H188.563V127.819Z" fill="#09090B"/>
<path d="M202.02 134.748H198.555C196.592 134.748 195.091 133.247 195.091 131.284C195.091 129.321 196.592 127.819 198.555 127.819H202.02V134.748Z" fill="#09090B"/>
<path d="M205.281 134.748H201.817V127.819H208.746V131.284C208.746 133.247 207.244 134.748 205.281 134.748Z" fill="#09090B"/>
<path d="M20.3817 134.545H13.4526V141.475H20.3817V134.545Z" fill="#09090B"/>
<path d="M33.8349 141.475H26.9058V138.01C26.9058 136.047 28.4071 134.545 30.3703 134.545H33.8349V141.475Z" fill="#09090B"/>
<path d="M40.5646 134.545H33.6355V141.475H40.5646V134.545Z" fill="#09090B"/>
<path d="M47.2912 134.545H40.3621V141.475H47.2912V134.545Z" fill="#09090B"/>
<path d="M54.018 134.545H47.0889V141.475H54.018V134.545Z" fill="#09090B"/>
<path d="M57.2795 141.475H53.8149V134.545H57.2795C59.2427 134.545 60.744 136.047 60.744 138.01C60.744 139.973 59.2427 141.475 57.2795 141.475Z" fill="#09090B"/>
<path d="M84.1889 141.475C82.2257 141.475 80.7244 139.973 80.7244 138.01V134.545H87.6535V138.01C87.6535 139.973 86.1522 141.475 84.1889 141.475Z" fill="#09090B"/>
<path d="M97.644 141.475C95.6807 141.475 94.1794 139.973 94.1794 138.01V134.545H101.109V138.01C101.109 139.973 99.6072 141.475 97.644 141.475Z" fill="#09090B"/>
<path d="M134.746 134.545H127.817V141.475H134.746V134.545Z" fill="#09090B"/>
<path d="M154.928 134.545H147.999V141.475H154.928V134.545Z" fill="#09090B"/>
<path d="M168.381 141.475H161.452V138.01C161.452 136.047 162.954 134.545 164.917 134.545H168.381V141.475Z" fill="#09090B"/>
<path d="M175.11 134.545H168.181V141.475H175.11V134.545Z" fill="#09090B"/>
<path d="M188.563 134.545H181.634V141.475H188.563V134.545Z" fill="#09090B"/>
<path d="M20.3817 141.273H13.4526V148.202H20.3817V141.273Z" fill="#09090B"/>
<path d="M30.3703 148.202C28.4071 148.202 26.9058 146.701 26.9058 144.738V141.273H33.8349V144.738C33.8349 146.701 32.3335 148.202 30.3703 148.202Z" fill="#09090B"/>
<path d="M47.2912 141.273H40.3621V148.202H47.2912V141.273Z" fill="#09090B"/>
<path d="M54.018 141.273H47.0889V148.202H54.018V141.273Z" fill="#09090B"/>
<path d="M77.4604 148.202C79.3738 148.202 80.9249 146.651 80.9249 144.738C80.9249 142.824 79.3738 141.273 77.4604 141.273C75.547 141.273 73.9958 142.824 73.9958 144.738C73.9958 146.651 75.547 148.202 77.4604 148.202Z" fill="#09090B"/>
<path d="M128.018 148.202H124.553C122.59 148.202 121.089 146.701 121.089 144.738C121.089 142.774 122.59 141.273 124.553 141.273H128.018V148.202Z" fill="#09090B"/>
<path d="M134.746 141.273H127.817V148.202H134.746V141.273Z" fill="#09090B"/>
<path d="M138.008 148.202H134.543V141.273H138.008C139.971 141.273 141.472 142.774 141.472 144.738C141.472 146.701 139.971 148.202 138.008 148.202Z" fill="#09090B"/>
<path d="M154.928 141.273H147.999V148.202H154.928V141.273Z" fill="#09090B"/>
<path d="M168.381 141.273H161.452V148.202H168.381V141.273Z" fill="#09090B"/>
<path d="M175.11 141.273H168.181V148.202H175.11V141.273Z" fill="#09090B"/>
<path d="M188.563 141.273H181.634V148.202H188.563V141.273Z" fill="#09090B"/>
<path d="M205.281 148.202C207.195 148.202 208.746 146.651 208.746 144.738C208.746 142.824 207.195 141.273 205.281 141.273C203.368 141.273 201.817 142.824 201.817 144.738C201.817 146.651 203.368 148.202 205.281 148.202Z" fill="#09090B"/>
<path d="M16.9172 154.928C14.9539 154.928 13.4526 153.427 13.4526 151.464V147.999H20.3817V151.464C20.3817 153.427 18.8804 154.928 16.9172 154.928Z" fill="#09090B"/>
<path d="M40.5646 154.928H37.1C35.1368 154.928 33.6355 153.427 33.6355 151.464C33.6355 149.501 35.1368 147.999 37.1 147.999H40.5646V154.928Z" fill="#09090B"/>
<path d="M47.2912 147.999H40.3621V154.928H47.2912V147.999Z" fill="#09090B"/>
<path d="M54.018 147.999H47.0889V154.928H54.018V147.999Z" fill="#09090B"/>
<path d="M57.2795 154.928H53.8149V147.999H57.2795C59.2427 147.999 60.744 149.501 60.744 151.464C60.744 153.427 59.2427 154.928 57.2795 154.928Z" fill="#09090B"/>
<path d="M87.6535 154.928H84.1889C82.2257 154.928 80.7244 153.427 80.7244 151.464C80.7244 149.501 82.2257 147.999 84.1889 147.999H87.6535V154.928Z" fill="#09090B"/>
<path d="M94.3825 147.999H87.4534V154.928H94.3825V147.999Z" fill="#09090B"/>
<path d="M101.109 147.999H94.1794V154.928H101.109V147.999Z" fill="#09090B"/>
<path d="M104.372 154.928H100.908V147.999H104.372C106.336 147.999 107.837 149.501 107.837 151.464C107.837 153.427 106.336 154.928 104.372 154.928Z" fill="#09090B"/>
<path d="M117.827 154.928C119.741 154.928 121.292 153.377 121.292 151.464C121.292 149.55 119.741 147.999 117.827 147.999C115.914 147.999 114.363 149.55 114.363 151.464C114.363 153.377 115.914 154.928 117.827 154.928Z" fill="#09090B"/>
<path d="M131.281 154.928C129.318 154.928 127.817 153.427 127.817 151.464V147.999H134.746V151.464C134.746 153.427 133.245 154.928 131.281 154.928Z" fill="#09090B"/>
<path d="M148.201 154.928H141.272V151.464C141.272 149.501 142.773 147.999 144.737 147.999H148.201V154.928Z" fill="#09090B"/>
<path d="M154.928 147.999H147.999V154.928H154.928V147.999Z" fill="#09090B"/>
<path d="M161.655 147.999H154.726V154.928H161.655V147.999Z" fill="#09090B"/>
<path d="M168.381 147.999H161.452V154.928H168.381V147.999Z" fill="#09090B"/>
<path d="M175.11 147.999H168.181V154.928H175.11V147.999Z" fill="#09090B"/>
<path d="M181.837 147.999H174.907V154.928H181.837V147.999Z" fill="#09090B"/>
<path d="M188.563 147.999H181.634V154.928H188.563V147.999Z" fill="#09090B"/>
<path d="M191.825 154.928H188.36V147.999H191.825C193.788 147.999 195.289 149.501 195.289 151.464C195.289 153.427 193.788 154.928 191.825 154.928Z" fill="#09090B"/>
<path d="M70.7348 161.658C72.6482 161.658 74.1994 160.106 74.1994 158.193C74.1994 156.28 72.6482 154.729 70.7348 154.729C68.8214 154.729 67.2703 156.28 67.2703 158.193C67.2703 160.106 68.8214 161.658 70.7348 161.658Z" fill="#09090B"/>
<path d="M90.9179 161.658C88.9547 161.658 87.4534 160.156 87.4534 158.193V154.729H94.3825V158.193C94.3825 160.156 92.8812 161.658 90.9179 161.658Z" fill="#09090B"/>
<path d="M141.472 161.658H138.008C136.044 161.658 134.543 160.156 134.543 158.193C134.543 156.23 136.044 154.729 138.008 154.729H141.472V161.658Z" fill="#09090B"/>
<path d="M148.201 154.729H141.272V161.658H148.201V154.729Z" fill="#09090B"/>
<path d="M154.928 154.729H147.999V161.658H154.928V154.729Z" fill="#09090B"/>
<path d="M181.837 154.729H174.907V161.658H181.837V154.729Z" fill="#09090B"/>
<path d="M185.099 161.658H181.634V154.729H188.563V158.193C188.563 160.156 187.062 161.658 185.099 161.658Z" fill="#09090B"/>
<path d="M202.02 161.658H198.555C196.592 161.658 195.091 160.156 195.091 158.193C195.091 156.23 196.592 154.729 198.555 154.729H202.02V161.658Z" fill="#09090B"/>
<path d="M205.281 161.658H201.817V154.729H205.281C207.244 154.729 208.746 156.23 208.746 158.193C208.746 160.156 207.244 161.658 205.281 161.658Z" fill="#09090B"/>
<path d="M80.9249 168.384H73.9958V164.919C73.9958 162.956 75.4972 161.455 77.4604 161.455C79.4236 161.455 80.9249 162.956 80.9249 164.919V168.384Z" fill="#09090B"/>
<path d="M101.109 168.384H97.644C95.6807 168.384 94.1794 166.882 94.1794 164.919C94.1794 162.956 95.6807 161.455 97.644 161.455H101.109V168.384Z" fill="#09090B"/>
<path d="M107.837 168.384H100.908V161.455H104.372C106.336 161.455 107.837 162.956 107.837 164.919V168.384Z" fill="#09090B"/>
<path d="M117.827 168.384C119.741 168.384 121.292 166.833 121.292 164.919C121.292 163.006 119.741 161.455 117.827 161.455C115.914 161.455 114.363 163.006 114.363 164.919C114.363 166.833 115.914 168.384 117.827 168.384Z" fill="#09090B"/>
<path d="M148.201 161.455H141.272V168.384H148.201V161.455Z" fill="#09090B"/>
<path d="M154.928 161.455H147.999V168.384H154.928V161.455Z" fill="#09090B"/>
<path d="M164.917 168.384C166.83 168.384 168.381 166.833 168.381 164.919C168.381 163.006 166.83 161.455 164.917 161.455C163.004 161.455 161.452 163.006 161.452 164.919C161.452 166.833 163.004 168.384 164.917 168.384Z" fill="#09090B"/>
<path d="M181.837 161.455H174.907V168.384H181.837V161.455Z" fill="#09090B"/>
<path d="M80.9249 168.183H73.9958V175.112H80.9249V168.183Z" fill="#09090B"/>
<path d="M90.9179 175.112C92.8313 175.112 94.3825 173.561 94.3825 171.647C94.3825 169.734 92.8313 168.183 90.9179 168.183C89.0045 168.183 87.4534 169.734 87.4534 171.647C87.4534 173.561 89.0045 175.112 90.9179 175.112Z" fill="#09090B"/>
<path d="M107.837 168.183H100.908V175.112H107.837V168.183Z" fill="#09090B"/>
<path d="M111.098 175.112H107.634V168.183H111.098C113.062 168.183 114.563 169.684 114.563 171.647C114.563 173.61 113.062 175.112 111.098 175.112Z" fill="#09090B"/>
<path d="M124.553 175.112C126.467 175.112 128.018 173.561 128.018 171.647C128.018 169.734 126.467 168.183 124.553 168.183C122.64 168.183 121.089 169.734 121.089 171.647C121.089 173.561 122.64 175.112 124.553 175.112Z" fill="#09090B"/>
<path d="M148.201 175.112H144.737C142.773 175.112 141.272 173.61 141.272 171.647V168.183H148.201V175.112Z" fill="#09090B"/>
<path d="M154.928 168.183H147.999V175.112H154.928V168.183Z" fill="#09090B"/>
<path d="M181.837 168.183H174.907V175.112H181.837V168.183Z" fill="#09090B"/>
<path d="M188.563 175.112H181.634V168.183H185.099C187.062 168.183 188.563 169.684 188.563 171.647V175.112Z" fill="#09090B"/>
<path d="M205.281 175.112C207.195 175.112 208.746 173.561 208.746 171.647C208.746 169.734 207.195 168.183 205.281 168.183C203.368 168.183 201.817 169.734 201.817 171.647C201.817 173.561 203.368 175.112 205.281 175.112Z" fill="#09090B"/>
<path d="M74.1994 181.839H67.2703V178.374C67.2703 176.411 68.7716 174.91 70.7348 174.91H74.1994V181.839Z" fill="#09090B"/>
<path d="M80.9249 174.91H73.9958V181.839H80.9249V174.91Z" fill="#09090B"/>
<path d="M87.6535 181.839H80.7244V174.91H84.1889C86.1522 174.91 87.6535 176.411 87.6535 178.374V181.839Z" fill="#09090B"/>
<path d="M101.109 181.839H97.644C95.6807 181.839 94.1794 180.338 94.1794 178.374C94.1794 176.411 95.6807 174.91 97.644 174.91H101.109V181.839Z" fill="#09090B"/>
<path d="M104.372 181.839H100.908V174.91H107.837V178.374C107.837 180.338 106.336 181.839 104.372 181.839Z" fill="#09090B"/>
<path d="M154.928 174.91H147.999V181.839H154.928V174.91Z" fill="#09090B"/>
<path d="M161.655 174.91H154.726V181.839H161.655V174.91Z" fill="#09090B"/>
<path d="M168.381 174.91H161.452V181.839H168.381V174.91Z" fill="#09090B"/>
<path d="M175.11 174.91H168.181V181.839H175.11V174.91Z" fill="#09090B"/>
<path d="M181.837 174.91H174.907V181.839H181.837V174.91Z" fill="#09090B"/>
<path d="M188.563 174.91H181.634V181.839H188.563V174.91Z" fill="#09090B"/>
<path d="M195.289 174.91H188.36V181.839H195.289V174.91Z" fill="#09090B"/>
<path d="M198.555 181.839H195.091V174.91H198.555C200.518 174.91 202.02 176.411 202.02 178.374C202.02 180.338 200.518 181.839 198.555 181.839Z" fill="#09090B"/>
<path d="M74.1994 181.638H67.2703V188.567H74.1994V181.638Z" fill="#09090B"/>
<path d="M87.6535 181.638H80.7244V188.567H87.6535V181.638Z" fill="#09090B"/>
<path d="M94.3825 188.567H87.4534V181.638H90.9179C92.8812 181.638 94.3825 183.139 94.3825 185.102V188.567Z" fill="#09090B"/>
<path d="M121.292 188.567H117.827C115.864 188.567 114.363 187.066 114.363 185.102C114.363 183.139 115.864 181.638 117.827 181.638H121.292V188.567Z" fill="#09090B"/>
<path d="M124.553 188.567H121.089V181.638H124.553C126.517 181.638 128.018 183.139 128.018 185.102C128.018 187.066 126.517 188.567 124.553 188.567Z" fill="#09090B"/>
<path d="M148.201 188.567H141.272V185.102C141.272 183.139 142.773 181.638 144.737 181.638H148.201V188.567Z" fill="#09090B"/>
<path d="M154.928 181.638H147.999V188.567H154.928V181.638Z" fill="#09090B"/>
<path d="M161.655 181.638H154.726V188.567H161.655V181.638Z" fill="#09090B"/>
<path d="M175.11 181.638H168.181V188.567H175.11V181.638Z" fill="#09090B"/>
<path d="M74.1994 195.293H70.7348C68.7716 195.293 67.2703 193.792 67.2703 191.829V188.364H74.1994V195.293Z" fill="#09090B"/>
<path d="M80.9249 188.364H73.9958V195.293H80.9249V188.364Z" fill="#09090B"/>
<path d="M87.6535 188.364H80.7244V195.293H87.6535V188.364Z" fill="#09090B"/>
<path d="M94.3825 188.364H87.4534V195.293H94.3825V188.364Z" fill="#09090B"/>
<path d="M104.372 195.293C106.286 195.293 107.837 193.742 107.837 191.829C107.837 189.915 106.286 188.364 104.372 188.364C102.459 188.364 100.908 189.915 100.908 191.829C100.908 193.742 102.459 195.293 104.372 195.293Z" fill="#09090B"/>
<path d="M141.472 195.293H134.543V191.829C134.543 189.865 136.044 188.364 138.008 188.364H141.472V195.293Z" fill="#09090B"/>
<path d="M148.201 188.364H141.272V195.293H148.201V188.364Z" fill="#09090B"/>
<path d="M154.928 188.364H147.999V195.293H154.928V188.364Z" fill="#09090B"/>
<path d="M161.655 188.364H154.726V195.293H161.655V188.364Z" fill="#09090B"/>
<path d="M168.381 188.364H161.452V195.293H168.381V188.364Z" fill="#09090B"/>
<path d="M175.11 188.364H168.181V195.293H175.11V188.364Z" fill="#09090B"/>
<path d="M181.837 188.364H174.907V195.293H181.837V188.364Z" fill="#09090B"/>
<path d="M188.563 188.364H181.634V195.293H188.563V188.364Z" fill="#09090B"/>
<path d="M195.289 188.364H188.36V195.293H195.289V188.364Z" fill="#09090B"/>
<path d="M202.02 195.293H195.091V188.364H198.555C200.518 188.364 202.02 189.865 202.02 191.829V195.293Z" fill="#09090B"/>
<path d="M87.6535 195.092H80.7244V202.021H87.6535V195.092Z" fill="#09090B"/>
<path d="M90.9179 202.021H87.4534V195.092H94.3825V198.556C94.3825 200.52 92.8812 202.021 90.9179 202.021Z" fill="#09090B"/>
<path d="M114.563 202.021H107.634V198.556C107.634 196.593 109.135 195.092 111.098 195.092H114.563V202.021Z" fill="#09090B"/>
<path d="M121.292 202.021H114.363V195.092H117.827C119.791 195.092 121.292 196.593 121.292 198.556V202.021Z" fill="#09090B"/>
<path d="M134.746 202.021H131.281C129.318 202.021 127.817 200.52 127.817 198.556C127.817 196.593 129.318 195.092 131.281 195.092H134.746V202.021Z" fill="#09090B"/>
<path d="M141.472 195.092H134.543V202.021H141.472V195.092Z" fill="#09090B"/>
<path d="M151.464 202.021C149.501 202.021 147.999 200.52 147.999 198.556V195.092H154.928V198.556C154.928 200.52 153.427 202.021 151.464 202.021Z" fill="#09090B"/>
<path d="M181.837 195.092H174.907V202.021H181.837V195.092Z" fill="#09090B"/>
<path d="M198.555 202.021C196.592 202.021 195.091 200.52 195.091 198.556V195.092H202.02V198.556C202.02 200.52 200.518 202.021 198.555 202.021Z" fill="#09090B"/>
<path d="M80.9249 208.747H77.4604C75.4972 208.747 73.9958 207.246 73.9958 205.282C73.9958 203.319 75.4972 201.818 77.4604 201.818H80.9249V208.747Z" fill="#09090B"/>
<path d="M84.1889 208.747H80.7244V201.818H87.6535V205.282C87.6535 207.246 86.1522 208.747 84.1889 208.747Z" fill="#09090B"/>
<path d="M107.837 208.747H104.372C102.409 208.747 100.908 207.246 100.908 205.282C100.908 203.319 102.409 201.818 104.372 201.818H107.837V208.747Z" fill="#09090B"/>
<path d="M114.563 201.818H107.634V208.747H114.563V201.818Z" fill="#09090B"/>
<path d="M117.827 208.747H114.363V201.818H121.292V205.282C121.292 207.246 119.791 208.747 117.827 208.747Z" fill="#09090B"/>
<path d="M141.472 208.747H138.008C136.044 208.747 134.543 207.246 134.543 205.282V201.818H141.472V208.747Z" fill="#09090B"/>
<path d="M144.737 208.747H141.272V201.818H144.737C146.7 201.818 148.201 203.319 148.201 205.282C148.201 207.246 146.7 208.747 144.737 208.747Z" fill="#09090B"/>
<path d="M178.372 208.747C176.409 208.747 174.907 207.246 174.907 205.282V201.818H181.837V205.282C181.837 207.246 180.335 208.747 178.372 208.747Z" fill="#09090B"/>
<path d="M191.825 208.747C193.738 208.747 195.289 207.196 195.289 205.282C195.289 203.369 193.738 201.818 191.825 201.818C189.911 201.818 188.36 203.369 188.36 205.282C188.36 207.196 189.911 208.747 191.825 208.747Z" fill="#09090B"/>
<path d="M28.5902 60.5448H45.7448C53.8175 60.5448 60.5448 53.8175 60.5448 45.7448V28.5902C60.5448 20.1811 53.8175 13.4539 45.4084 13.4539H28.2539C20.1811 13.4539 13.4539 20.1811 13.4539 28.2539V45.4084C13.4539 53.8175 20.1811 60.5448 28.5902 60.5448ZM53.8175 29.5993V44.3993C53.8175 49.4448 49.4448 53.8175 44.3993 53.8175H29.5993C24.2175 53.8175 20.1811 49.7811 20.1811 44.3993V29.5993C20.1811 24.5539 24.5539 20.1811 29.5993 20.1811H44.3993C49.7811 20.1811 53.8175 24.2175 53.8175 29.5993Z" fill="black"/>
<path d="M176.589 60.5448H193.743C201.816 60.5448 208.543 53.8175 208.543 45.7448V28.5902C208.543 20.1811 201.816 13.4539 193.407 13.4539H176.252C168.18 13.4539 161.452 20.1811 161.452 28.2539V45.4084C161.452 53.8175 168.18 60.5448 176.589 60.5448ZM201.816 29.5993V44.3993C201.816 49.4448 197.443 53.8175 192.398 53.8175H177.598C172.216 53.8175 168.18 49.7811 168.18 44.3993V29.5993C168.18 24.5539 172.552 20.1811 177.598 20.1811H192.398C197.78 20.1811 201.816 24.2175 201.816 29.5993Z" fill="black"/>
<path d="M28.589 208.545H45.7435C53.8163 208.545 60.5435 201.818 60.5435 193.745V176.591C60.5435 168.182 53.8163 161.455 45.4072 161.455H28.2526C20.1799 161.455 13.4526 168.182 13.4526 176.255V193.409C13.4526 201.818 20.1799 208.545 28.589 208.545ZM53.8163 177.6V192.4C53.8163 197.445 49.4435 201.818 44.3981 201.818H29.5981C24.2163 201.818 20.1799 197.782 20.1799 192.4V177.6C20.1799 172.555 24.5526 168.182 29.5981 168.182H44.3981C49.7799 168.182 53.8163 172.218 53.8163 177.6Z" fill="black"/>
<path d="M47.0876 32.6276V41.7094C47.0876 44.4003 44.3967 47.0912 41.3694 47.0912H32.6239C29.2603 47.0912 26.9058 44.7367 26.9058 41.3731V32.6276C26.9058 29.6003 29.5967 26.9094 32.6239 26.9094H41.7058C44.733 26.9094 47.0876 29.264 47.0876 32.6276Z" fill="black"/>
<path d="M195.089 32.6276V41.7094C195.089 44.4003 192.398 47.0912 189.371 47.0912H180.626C177.262 47.0912 174.907 44.7367 174.907 41.3731V32.6276C174.907 29.6003 177.598 26.9094 180.626 26.9094H189.707C192.735 26.9094 195.089 29.264 195.089 32.6276Z" fill="black"/>
<path d="M47.0876 180.628V189.71C47.0876 192.401 44.3967 195.092 41.3694 195.092H32.6239C29.2603 195.092 26.9058 192.737 26.9058 189.374V180.628C26.9058 177.601 29.5967 174.91 32.6239 174.91H41.7058C44.733 174.91 47.0876 177.264 47.0876 180.628Z" fill="black"/>
</g>
<rect x="1.10531" y="1.10531" width="219.789" height="219.789" rx="14.369" stroke="#DDDDDD" stroke-width="2.21061" stroke-linejoin="round" stroke-dasharray="8.84 8.84"/>
<defs>
<clipPath id="clip0_738_2843">
<rect width="222" height="222" rx="15.4743" fill="white"/>
</clipPath>
</defs>
</svg>
